<svg width="265" height="91" viewBox="0 0 265 91" fill="none" xmlns="http://www.w3.org/2000/svg">
<g filter="url(#filter0_b_1_45)">
<rect width="265" height="91" rx="8" fill="#283036" fill-opacity="0.2"/>
<rect x="-0.5" y="-0.5" width="266" height="92" rx="8.5" stroke="url(#paint0_linear_1_45)"/>
</g>
<path d="M38.336 36L34.176 28.772H31.914V36H28.95V17.93H35.19C36.5767 17.93 37.7467 18.1727 38.7 18.658C39.6707 19.1433 40.39 19.7933 40.858 20.608C41.3433 21.4227 41.586 22.3327 41.586 23.338C41.586 24.5167 41.2393 25.5913 40.546 26.562C39.87 27.5153 38.8213 28.1653 37.4 28.512L41.872 36H38.336ZM31.914 26.406H35.19C36.2993 26.406 37.1313 26.1287 37.686 25.574C38.258 25.0193 38.544 24.274 38.544 23.338C38.544 22.402 38.2667 21.674 37.712 21.154C37.1573 20.6167 36.3167 20.348 35.19 20.348H31.914V26.406ZM51.9817 36.234C50.6297 36.234 49.4077 35.9307 48.3157 35.324C47.2237 34.7 46.3657 33.8333 45.7417 32.724C45.1177 31.5973 44.8057 30.2973 44.8057 28.824C44.8057 27.368 45.1264 26.0767 45.7677 24.95C46.4091 23.8233 47.2844 22.9567 48.3937 22.35C49.5031 21.7433 50.7424 21.44 52.1117 21.44C53.4811 21.44 54.7204 21.7433 55.8297 22.35C56.9391 22.9567 57.8144 23.8233 58.4557 24.95C59.0971 26.0767 59.4177 27.368 59.4177 28.824C59.4177 30.28 59.0884 31.5713 58.4297 32.698C57.7711 33.8247 56.8697 34.7 55.7257 35.324C54.5991 35.9307 53.3511 36.234 51.9817 36.234ZM51.9817 33.66C52.7444 33.66 53.4551 33.478 54.1137 33.114C54.7897 32.75 55.3357 32.204 55.7517 31.476C56.1677 30.748 56.3757 29.864 56.3757 28.824C56.3757 27.784 56.1764 26.9087 55.7777 26.198C55.3791 25.47 54.8504 24.924 54.1917 24.56C53.5331 24.196 52.8224 24.014 52.0597 24.014C51.2971 24.014 50.5864 24.196 49.9277 24.56C49.2864 24.924 48.7751 25.47 48.3937 26.198C48.0124 26.9087 47.8217 27.784 47.8217 28.824C47.8217 30.3667 48.2117 31.5627 48.9917 32.412C49.7891 33.244 50.7857 33.66 51.9817 33.66ZM69.9658 21.44C71.0925 21.44 72.0978 21.674 72.9818 22.142C73.8831 22.61 74.5851 23.3033 75.0878 24.222C75.5905 25.1407 75.8418 26.25 75.8418 27.55V36H72.9038V27.992C72.9038 26.7093 72.5831 25.73 71.9418 25.054C71.3005 24.3607 70.4251 24.014 69.3158 24.014C68.2065 24.014 67.3225 24.3607 66.6638 25.054C66.0225 25.73 65.7018 26.7093 65.7018 27.992V36H62.7378V21.674H65.7018V23.312C66.1871 22.7227 66.8025 22.2633 67.5478 21.934C68.3105 21.6047 69.1165 21.44 69.9658 21.44ZM79.0246 28.772C79.0246 27.3333 79.3192 26.0593 79.9086 24.95C80.5152 23.8407 81.3299 22.9827 82.3526 22.376C83.3926 21.752 84.5366 21.44 85.7846 21.44C86.9112 21.44 87.8906 21.6653 88.7226 22.116C89.5719 22.5493 90.2479 23.0953 90.7506 23.754V21.674H93.7406V36H90.7506V33.868C90.2479 34.544 89.5632 35.1073 88.6966 35.558C87.8299 36.0087 86.8419 36.234 85.7326 36.234C84.5019 36.234 83.3752 35.922 82.3526 35.298C81.3299 34.6567 80.5152 33.7727 79.9086 32.646C79.3192 31.502 79.0246 30.2107 79.0246 28.772ZM90.7506 28.824C90.7506 27.836 90.5426 26.978 90.1266 26.25C89.7279 25.522 89.1992 24.9673 88.5406 24.586C87.8819 24.2047 87.1712 24.014 86.4086 24.014C85.6459 24.014 84.9352 24.2047 84.2766 24.586C83.6179 24.95 83.0806 25.496 82.6646 26.224C82.2659 26.9347 82.0666 27.784 82.0666 28.772C82.0666 29.76 82.2659 30.6267 82.6646 31.372C83.0806 32.1173 83.6179 32.6893 84.2766 33.088C84.9526 33.4693 85.6632 33.66 86.4086 33.66C87.1712 33.66 87.8819 33.4693 88.5406 33.088C89.1992 32.7067 89.7279 32.152 90.1266 31.424C90.5426 30.6787 90.7506 29.812 90.7506 28.824ZM100.988 16.76V36H98.0237V16.76H100.988ZM104.281 28.772C104.281 27.3333 104.576 26.0593 105.165 24.95C105.772 23.8407 106.586 22.9827 107.609 22.376C108.649 21.752 109.802 21.44 111.067 21.44C112.003 21.44 112.922 21.648 113.823 22.064C114.742 22.4627 115.47 23 116.007 23.676V16.76H118.997V36H116.007V33.842C115.522 34.5353 114.846 35.1073 113.979 35.558C113.13 36.0087 112.15 36.234 111.041 36.234C109.793 36.234 108.649 35.922 107.609 35.298C106.586 34.6567 105.772 33.7727 105.165 32.646C104.576 31.502 104.281 30.2107 104.281 28.772ZM116.007 28.824C116.007 27.836 115.799 26.978 115.383 26.25C114.984 25.522 114.456 24.9673 113.797 24.586C113.138 24.2047 112.428 24.014 111.665 24.014C110.902 24.014 110.192 24.2047 109.533 24.586C108.874 24.95 108.337 25.496 107.921 26.224C107.522 26.9347 107.323 27.784 107.323 28.772C107.323 29.76 107.522 30.6267 107.921 31.372C108.337 32.1173 108.874 32.6893 109.533 33.088C110.209 33.4693 110.92 33.66 111.665 33.66C112.428 33.66 113.138 33.4693 113.797 33.088C114.456 32.7067 114.984 32.152 115.383 31.424C115.799 30.6787 116.007 29.812 116.007 28.824ZM139.81 36L135.65 28.772H133.388V36H130.424V17.93H136.664C138.051 17.93 139.221 18.1727 140.174 18.658C141.145 19.1433 141.864 19.7933 142.332 20.608C142.817 21.4227 143.06 22.3327 143.06 23.338C143.06 24.5167 142.713 25.5913 142.02 26.562C141.344 27.5153 140.295 28.1653 138.874 28.512L143.346 36H139.81ZM133.388 26.406H136.664C137.773 26.406 138.605 26.1287 139.16 25.574C139.732 25.0193 140.018 24.274 140.018 23.338C140.018 22.402 139.741 21.674 139.186 21.154C138.631 20.6167 137.791 20.348 136.664 20.348H133.388V26.406ZM148.75 19.776C148.213 19.776 147.762 19.594 147.398 19.23C147.034 18.866 146.852 18.4153 146.852 17.878C146.852 17.3407 147.034 16.89 147.398 16.526C147.762 16.162 148.213 15.98 148.75 15.98C149.27 15.98 149.712 16.162 150.076 16.526C150.44 16.89 150.622 17.3407 150.622 17.878C150.622 18.4153 150.44 18.866 150.076 19.23C149.712 19.594 149.27 19.776 148.75 19.776ZM150.206 21.674V36H147.242V21.674H150.206ZM153.499 28.824C153.499 27.3507 153.794 26.0593 154.383 24.95C154.99 23.8233 155.822 22.9567 156.879 22.35C157.937 21.7433 159.15 21.44 160.519 21.44C162.253 21.44 163.683 21.856 164.809 22.688C165.953 23.5027 166.725 24.6727 167.123 26.198H163.925C163.665 25.4873 163.249 24.9327 162.677 24.534C162.105 24.1353 161.386 23.936 160.519 23.936C159.306 23.936 158.335 24.3693 157.607 25.236C156.897 26.0853 156.541 27.2813 156.541 28.824C156.541 30.3667 156.897 31.5713 157.607 32.438C158.335 33.3047 159.306 33.738 160.519 33.738C162.235 33.738 163.371 32.984 163.925 31.476H167.123C166.707 32.932 165.927 34.0933 164.783 34.96C163.639 35.8093 162.218 36.234 160.519 36.234C159.15 36.234 157.937 35.9307 156.879 35.324C155.822 34.7 154.99 33.8333 154.383 32.724C153.794 31.5973 153.499 30.2973 153.499 28.824ZM177.877 21.44C178.969 21.44 179.94 21.674 180.789 22.142C181.656 22.61 182.332 23.3033 182.817 24.222C183.32 25.1407 183.571 26.25 183.571 27.55V36H180.633V27.992C180.633 26.7093 180.313 25.73 179.671 25.054C179.03 24.3607 178.155 24.014 177.045 24.014C175.936 24.014 175.052 24.3607 174.393 25.054C173.752 25.73 173.431 26.7093 173.431 27.992V36H170.467V16.76H173.431V23.338C173.934 22.7313 174.567 22.2633 175.329 21.934C176.109 21.6047 176.959 21.44 177.877 21.44ZM186.754 28.772C186.754 27.3333 187.049 26.0593 187.638 24.95C188.245 23.8407 189.059 22.9827 190.082 22.376C191.122 21.752 192.266 21.44 193.514 21.44C194.641 21.44 195.62 21.6653 196.452 22.116C197.301 22.5493 197.977 23.0953 198.48 23.754V21.674H201.47V36H198.48V33.868C197.977 34.544 197.293 35.1073 196.426 35.558C195.559 36.0087 194.571 36.234 193.462 36.234C192.231 36.234 191.105 35.922 190.082 35.298C189.059 34.6567 188.245 33.7727 187.638 32.646C187.049 31.502 186.754 30.2107 186.754 28.772ZM198.48 28.824C198.48 27.836 198.272 26.978 197.856 26.25C197.457 25.522 196.929 24.9673 196.27 24.586C195.611 24.2047 194.901 24.014 194.138 24.014C193.375 24.014 192.665 24.2047 192.006 24.586C191.347 24.95 190.81 25.496 190.394 26.224C189.995 26.9347 189.796 27.784 189.796 28.772C189.796 29.76 189.995 30.6267 190.394 31.372C190.81 32.1173 191.347 32.6893 192.006 33.088C192.682 33.4693 193.393 33.66 194.138 33.66C194.901 33.66 195.611 33.4693 196.27 33.088C196.929 32.7067 197.457 32.152 197.856 31.424C198.272 30.6787 198.48 29.812 198.48 28.824ZM208.717 23.754C209.15 23.026 209.722 22.4627 210.433 22.064C211.161 21.648 212.019 21.44 213.007 21.44V24.508H212.253C211.092 24.508 210.208 24.8027 209.601 25.392C209.012 25.9813 208.717 27.004 208.717 28.46V36H205.753V21.674H208.717V23.754ZM215.134 28.772C215.134 27.3333 215.428 26.0593 216.018 24.95C216.624 23.8407 217.439 22.9827 218.462 22.376C219.502 21.752 220.654 21.44 221.92 21.44C222.856 21.44 223.774 21.648 224.676 22.064C225.594 22.4627 226.322 23 226.86 23.676V16.76H229.85V36H226.86V33.842C226.374 34.5353 225.698 35.1073 224.832 35.558C223.982 36.0087 223.003 36.234 221.894 36.234C220.646 36.234 219.502 35.922 218.462 35.298C217.439 34.6567 216.624 33.7727 216.018 32.646C215.428 31.502 215.134 30.2107 215.134 28.772ZM226.86 28.824C226.86 27.836 226.652 26.978 226.236 26.25C225.837 25.522 225.308 24.9673 224.65 24.586C223.991 24.2047 223.28 24.014 222.518 24.014C221.755 24.014 221.044 24.2047 220.386 24.586C219.727 24.95 219.19 25.496 218.774 26.224C218.375 26.9347 218.176 27.784 218.176 28.772C218.176 29.76 218.375 30.6267 218.774 31.372C219.19 32.1173 219.727 32.6893 220.386 33.088C221.062 33.4693 221.772 33.66 222.518 33.66C223.28 33.66 223.991 33.4693 224.65 33.088C225.308 32.7067 225.837 32.152 226.236 31.424C226.652 30.6787 226.86 29.812 226.86 28.824ZM239.333 36.234C238.206 36.234 237.192 36.0347 236.291 35.636C235.407 35.22 234.705 34.6653 234.185 33.972C233.665 33.2613 233.387 32.4727 233.353 31.606H236.421C236.473 32.2127 236.759 32.724 237.279 33.14C237.816 33.5387 238.483 33.738 239.281 33.738C240.113 33.738 240.754 33.582 241.205 33.27C241.673 32.9407 241.907 32.5247 241.907 32.022C241.907 31.4847 241.647 31.086 241.127 30.826C240.624 30.566 239.818 30.28 238.709 29.968C237.634 29.6733 236.759 29.3873 236.083 29.11C235.407 28.8327 234.817 28.408 234.315 27.836C233.829 27.264 233.587 26.51 233.587 25.574C233.587 24.8113 233.812 24.118 234.263 23.494C234.713 22.8527 235.355 22.35 236.187 21.986C237.036 21.622 238.007 21.44 239.099 21.44C240.728 21.44 242.037 21.856 243.025 22.688C244.03 23.5027 244.567 24.6207 244.637 26.042H241.673C241.621 25.4007 241.361 24.8893 240.893 24.508C240.425 24.1267 239.792 23.936 238.995 23.936C238.215 23.936 237.617 24.0833 237.201 24.378C236.785 24.6727 236.577 25.0627 236.577 25.548C236.577 25.9293 236.715 26.25 236.993 26.51C237.27 26.77 237.608 26.978 238.007 27.134C238.405 27.2727 238.995 27.4547 239.775 27.68C240.815 27.9573 241.664 28.2433 242.323 28.538C242.999 28.8153 243.579 29.2313 244.065 29.786C244.55 30.3407 244.801 31.0773 244.819 31.996C244.819 32.8107 244.593 33.5387 244.143 34.18C243.692 34.8213 243.051 35.324 242.219 35.688C241.404 36.052 240.442 36.234 239.333 36.234Z" fill="#FFFDFD" fill-opacity="0.78"/>
<path d="M35.688 58.112C35.688 59.04 35.368 59.8133 34.728 60.432C34.0987 61.04 33.1333 61.344 31.832 61.344H29.688V66H28.232V54.848H31.832C33.0907 54.848 34.0453 55.152 34.696 55.76C35.3573 56.368 35.688 57.152 35.688 58.112ZM31.832 60.144C32.6427 60.144 33.24 59.968 33.624 59.616C34.008 59.264 34.2 58.7627 34.2 58.112C34.2 56.736 33.4107 56.048 31.832 56.048H29.688V60.144H31.832ZM38.9536 58.656C39.2096 58.1547 39.5723 57.7653 40.0416 57.488C40.5216 57.2107 41.103 57.072 41.7856 57.072V58.576H41.4016C39.7696 58.576 38.9536 59.4613 38.9536 61.232V66H37.4976V57.232H38.9536V58.656ZM47.2904 66.144C46.469 66.144 45.7224 65.9573 45.0504 65.584C44.389 65.2107 43.8664 64.6827 43.4824 64C43.109 63.3067 42.9224 62.5067 42.9224 61.6C42.9224 60.704 43.1144 59.9147 43.4984 59.232C43.893 58.5387 44.4264 58.0107 45.0984 57.648C45.7704 57.2747 46.5224 57.088 47.3544 57.088C48.1864 57.088 48.9384 57.2747 49.6104 57.648C50.2824 58.0107 50.8104 58.5333 51.1944 59.216C51.589 59.8987 51.7864 60.6933 51.7864 61.6C51.7864 62.5067 51.5837 63.3067 51.1784 64C50.7837 64.6827 50.245 65.2107 49.5624 65.584C48.8797 65.9573 48.1224 66.144 47.2904 66.144ZM47.2904 64.864C47.813 64.864 48.3037 64.7413 48.7624 64.496C49.221 64.2507 49.589 63.8827 49.8664 63.392C50.1544 62.9013 50.2984 62.304 50.2984 61.6C50.2984 60.896 50.1597 60.2987 49.8824 59.808C49.605 59.3173 49.2424 58.9547 48.7944 58.72C48.3464 58.4747 47.861 58.352 47.3384 58.352C46.805 58.352 46.3144 58.4747 45.8664 58.72C45.429 58.9547 45.077 59.3173 44.8104 59.808C44.5437 60.2987 44.4104 60.896 44.4104 61.6C44.4104 62.3147 44.5384 62.9173 44.7944 63.408C45.061 63.8987 45.413 64.2667 45.8504 64.512C46.2877 64.7467 46.7677 64.864 47.2904 64.864ZM53.1568 61.584C53.1568 60.688 53.3381 59.904 53.7008 59.232C54.0634 58.5493 54.5594 58.0213 55.1888 57.648C55.8288 57.2747 56.5434 57.088 57.3328 57.088C58.0154 57.088 58.6501 57.248 59.2368 57.568C59.8234 57.8773 60.2714 58.288 60.5808 58.8V54.16H62.0528V66H60.5808V64.352C60.2928 64.8747 59.8661 65.3067 59.3008 65.648C58.7354 65.9787 58.0741 66.144 57.3168 66.144C56.5381 66.144 55.8288 65.952 55.1888 65.568C54.5594 65.184 54.0634 64.6453 53.7008 63.952C53.3381 63.2587 53.1568 62.4693 53.1568 61.584ZM60.5808 61.6C60.5808 60.9387 60.4474 60.3627 60.1808 59.872C59.9141 59.3813 59.5514 59.008 59.0928 58.752C58.6448 58.4853 58.1488 58.352 57.6048 58.352C57.0608 58.352 56.5648 58.48 56.1168 58.736C55.6688 58.992 55.3114 59.3653 55.0448 59.856C54.7781 60.3467 54.6448 60.9227 54.6448 61.584C54.6448 62.256 54.7781 62.8427 55.0448 63.344C55.3114 63.8347 55.6688 64.2133 56.1168 64.48C56.5648 64.736 57.0608 64.864 57.6048 64.864C58.1488 64.864 58.6448 64.736 59.0928 64.48C59.5514 64.2133 59.9141 63.8347 60.1808 63.344C60.4474 62.8427 60.5808 62.2613 60.5808 61.6ZM72.2893 57.232V66H70.8333V64.704C70.5559 65.152 70.1666 65.504 69.6653 65.76C69.1746 66.0053 68.6306 66.128 68.0333 66.128C67.3506 66.128 66.7373 65.9893 66.1933 65.712C65.6493 65.424 65.2173 64.9973 64.8973 64.432C64.5879 63.8667 64.4333 63.1787 64.4333 62.368V57.232H65.8733V62.176C65.8733 63.04 66.0919 63.7067 66.5293 64.176C66.9666 64.6347 67.5639 64.864 68.3213 64.864C69.0999 64.864 69.7133 64.624 70.1613 64.144C70.6093 63.664 70.8333 62.9653 70.8333 62.048V57.232H72.2893ZM74.2036 61.6C74.2036 60.6933 74.385 59.904 74.7476 59.232C75.1103 58.5493 75.6116 58.0213 76.2516 57.648C76.9023 57.2747 77.6436 57.088 78.4756 57.088C79.553 57.088 80.4383 57.3493 81.1316 57.872C81.8356 58.3947 82.2996 59.12 82.5236 60.048H80.9556C80.8063 59.5147 80.513 59.0933 80.0756 58.784C79.649 58.4747 79.1156 58.32 78.4756 58.32C77.6436 58.32 76.9716 58.608 76.4596 59.184C75.9476 59.7493 75.6916 60.5547 75.6916 61.6C75.6916 62.656 75.9476 63.472 76.4596 64.048C76.9716 64.624 77.6436 64.912 78.4756 64.912C79.1156 64.912 79.649 64.7627 80.0756 64.464C80.5023 64.1653 80.7956 63.7387 80.9556 63.184H82.5236C82.289 64.08 81.8196 64.8 81.1156 65.344C80.4116 65.8773 79.5316 66.144 78.4756 66.144C77.6436 66.144 76.9023 65.9573 76.2516 65.584C75.6116 65.2107 75.1103 64.6827 74.7476 64C74.385 63.3173 74.2036 62.5173 74.2036 61.6ZM86.2424 58.432V63.6C86.2424 64.0267 86.333 64.3307 86.5144 64.512C86.6957 64.6827 87.0104 64.768 87.4584 64.768H88.5304V66H87.2184C86.4077 66 85.7997 65.8133 85.3944 65.44C84.989 65.0667 84.7864 64.4533 84.7864 63.6V58.432H83.6504V57.232H84.7864V55.024H86.2424V57.232H88.5304V58.432H86.2424ZM105.872 54.928V66H104.416V57.744L100.736 66H99.7121L96.0161 57.728V66H94.5601V54.928H96.1281L100.224 64.08L104.32 54.928H105.872ZM107.797 61.584C107.797 60.688 107.979 59.904 108.341 59.232C108.704 58.5493 109.2 58.0213 109.829 57.648C110.469 57.2747 111.179 57.088 111.957 57.088C112.725 57.088 113.392 57.2533 113.957 57.584C114.523 57.9147 114.944 58.3307 115.221 58.832V57.232H116.693V66H115.221V64.368C114.933 64.88 114.501 65.3067 113.925 65.648C113.36 65.9787 112.699 66.144 111.941 66.144C111.163 66.144 110.459 65.952 109.829 65.568C109.2 65.184 108.704 64.6453 108.341 63.952C107.979 63.2587 107.797 62.4693 107.797 61.584ZM115.221 61.6C115.221 60.9387 115.088 60.3627 114.821 59.872C114.555 59.3813 114.192 59.008 113.733 58.752C113.285 58.4853 112.789 58.352 112.245 58.352C111.701 58.352 111.205 58.48 110.757 58.736C110.309 58.992 109.952 59.3653 109.685 59.856C109.419 60.3467 109.285 60.9227 109.285 61.584C109.285 62.256 109.419 62.8427 109.685 63.344C109.952 63.8347 110.309 64.2133 110.757 64.48C111.205 64.736 111.701 64.864 112.245 64.864C112.789 64.864 113.285 64.736 113.733 64.48C114.192 64.2133 114.555 63.8347 114.821 63.344C115.088 62.8427 115.221 62.2613 115.221 61.6ZM123.426 57.072C124.493 57.072 125.357 57.3973 126.018 58.048C126.679 58.688 127.01 59.616 127.01 60.832V66H125.57V61.04C125.57 60.1653 125.351 59.4987 124.914 59.04C124.477 58.5707 123.879 58.336 123.122 58.336C122.354 58.336 121.741 58.576 121.282 59.056C120.834 59.536 120.61 60.2347 120.61 61.152V66H119.154V57.232H120.61V58.48C120.898 58.032 121.287 57.6853 121.778 57.44C122.279 57.1947 122.829 57.072 123.426 57.072ZM128.844 61.584C128.844 60.688 129.026 59.904 129.388 59.232C129.751 58.5493 130.247 58.0213 130.876 57.648C131.516 57.2747 132.226 57.088 133.004 57.088C133.772 57.088 134.439 57.2533 135.004 57.584C135.57 57.9147 135.991 58.3307 136.268 58.832V57.232H137.74V66H136.268V64.368C135.98 64.88 135.548 65.3067 134.972 65.648C134.407 65.9787 133.746 66.144 132.988 66.144C132.21 66.144 131.506 65.952 130.876 65.568C130.247 65.184 129.751 64.6453 129.388 63.952C129.026 63.2587 128.844 62.4693 128.844 61.584ZM136.268 61.6C136.268 60.9387 136.135 60.3627 135.868 59.872C135.602 59.3813 135.239 59.008 134.78 58.752C134.332 58.4853 133.836 58.352 133.292 58.352C132.748 58.352 132.252 58.48 131.804 58.736C131.356 58.992 130.999 59.3653 130.732 59.856C130.466 60.3467 130.332 60.9227 130.332 61.584C130.332 62.256 130.466 62.8427 130.732 63.344C130.999 63.8347 131.356 64.2133 131.804 64.48C132.252 64.736 132.748 64.864 133.292 64.864C133.836 64.864 134.332 64.736 134.78 64.48C135.239 64.2133 135.602 63.8347 135.868 63.344C136.135 62.8427 136.268 62.2613 136.268 61.6ZM143.817 57.088C144.574 57.088 145.235 57.2533 145.801 57.584C146.377 57.9147 146.803 58.3307 147.081 58.832V57.232H148.553V66.192C148.553 66.992 148.382 67.7013 148.041 68.32C147.699 68.9493 147.209 69.44 146.569 69.792C145.939 70.144 145.203 70.32 144.361 70.32C143.209 70.32 142.249 70.048 141.481 69.504C140.713 68.96 140.259 68.2187 140.121 67.28H141.561C141.721 67.8133 142.051 68.24 142.553 68.56C143.054 68.8907 143.657 69.056 144.361 69.056C145.161 69.056 145.811 68.8053 146.313 68.304C146.825 67.8027 147.081 67.0987 147.081 66.192V64.352C146.793 64.864 146.366 65.2907 145.801 65.632C145.235 65.9733 144.574 66.144 143.817 66.144C143.038 66.144 142.329 65.952 141.689 65.568C141.059 65.184 140.563 64.6453 140.201 63.952C139.838 63.2587 139.657 62.4693 139.657 61.584C139.657 60.688 139.838 59.904 140.201 59.232C140.563 58.5493 141.059 58.0213 141.689 57.648C142.329 57.2747 143.038 57.088 143.817 57.088ZM147.081 61.6C147.081 60.9387 146.947 60.3627 146.681 59.872C146.414 59.3813 146.051 59.008 145.593 58.752C145.145 58.4853 144.649 58.352 144.105 58.352C143.561 58.352 143.065 58.48 142.617 58.736C142.169 58.992 141.811 59.3653 141.545 59.856C141.278 60.3467 141.145 60.9227 141.145 61.584C141.145 62.256 141.278 62.8427 141.545 63.344C141.811 63.8347 142.169 64.2133 142.617 64.48C143.065 64.736 143.561 64.864 144.105 64.864C144.649 64.864 145.145 64.736 145.593 64.48C146.051 64.2133 146.414 63.8347 146.681 63.344C146.947 62.8427 147.081 62.2613 147.081 61.6ZM159.013 61.28C159.013 61.5573 158.997 61.8507 158.965 62.16H151.957C152.011 63.024 152.304 63.7013 152.837 64.192C153.381 64.672 154.037 64.912 154.805 64.912C155.435 64.912 155.957 64.768 156.373 64.48C156.8 64.1813 157.099 63.7867 157.269 63.296H158.837C158.603 64.1387 158.133 64.8267 157.429 65.36C156.725 65.8827 155.851 66.144 154.805 66.144C153.973 66.144 153.227 65.9573 152.565 65.584C151.915 65.2107 151.403 64.6827 151.029 64C150.656 63.3067 150.469 62.5067 150.469 61.6C150.469 60.6933 150.651 59.8987 151.013 59.216C151.376 58.5333 151.883 58.0107 152.533 57.648C153.195 57.2747 153.952 57.088 154.805 57.088C155.637 57.088 156.373 57.2693 157.013 57.632C157.653 57.9947 158.144 58.496 158.485 59.136C158.837 59.7653 159.013 60.48 159.013 61.28ZM157.509 60.976C157.509 60.4213 157.387 59.9467 157.141 59.552C156.896 59.1467 156.56 58.8427 156.133 58.64C155.717 58.4267 155.253 58.32 154.741 58.32C154.005 58.32 153.376 58.5547 152.853 59.024C152.341 59.4933 152.048 60.144 151.973 60.976H157.509ZM162.391 58.656C162.647 58.1547 163.01 57.7653 163.479 57.488C163.959 57.2107 164.54 57.072 165.223 57.072V58.576H164.839C163.207 58.576 162.391 59.4613 162.391 61.232V66H160.935V57.232H162.391V58.656Z" fill="#FFFDFD" fill-opacity="0.55"/>
<defs>
<filter id="filter0_b_1_45" x="-51" y="-51" width="367" height="193" filterUnits="userSpaceOnUse" color-interpolation-filters="sRGB">
<feFlood flood-opacity="0" result="BackgroundImageFix"/>
<feGaussianBlur in="BackgroundImageFix" stdDeviation="25"/>
<feComposite in2="SourceAlpha" operator="in" result="effect1_backgroundBlur_1_45"/>
<feBlend mode="normal" in="SourceGraphic" in2="effect1_backgroundBlur_1_45" result="shape"/>
</filter>
<linearGradient id="paint0_linear_1_45" x1="-12.7931" y1="-7.73497" x2="249.696" y2="81.6542" gradientUnits="userSpaceOnUse">
<stop stop-color="white" stop-opacity="0.1"/>
<stop offset="1" stop-color="white" stop-opacity="0"/>
</linearGradient>
</defs>
</svg>
