<svg width="43" height="42" viewBox="0 0 43 42" fill="none" xmlns="http://www.w3.org/2000/svg">
<rect x="0.284302" width="42.1373" height="42" rx="8" fill="#1E252B"/>
<path d="M23.8611 23.25H22.607V22C22.607 21.6685 22.4749 21.3505 22.2397 21.1161C22.0045 20.8817 21.6855 20.75 21.3529 20.75C21.0203 20.75 20.7013 20.8817 20.4662 21.1161C20.231 21.3505 20.0988 21.6685 20.0988 22V23.25H18.8448C18.5121 23.25 18.1932 23.3817 17.958 23.6161C17.7228 23.8505 17.5907 24.1685 17.5907 24.5C17.5907 24.8315 17.7228 25.1495 17.958 25.3839C18.1932 25.6183 18.5121 25.75 18.8448 25.75H20.0988V27C20.0988 27.3315 20.231 27.6495 20.4662 27.8839C20.7013 28.1183 21.0203 28.25 21.3529 28.25C21.6855 28.25 22.0045 28.1183 22.2397 27.8839C22.4749 27.6495 22.607 27.3315 22.607 27V25.75H23.8611C24.1937 25.75 24.5127 25.6183 24.7479 25.3839C24.9831 25.1495 25.1152 24.8315 25.1152 24.5C25.1152 24.1685 24.9831 23.8505 24.7479 23.6161C24.5127 23.3817 24.1937 23.25 23.8611 23.25Z" fill="white" fill-opacity="0.38"/>
<path d="M30.7586 15.8125H21.98L18.6817 11.8375C18.565 11.6941 18.4179 11.5783 18.2509 11.4983C18.084 11.4183 17.9013 11.3762 17.7161 11.375H11.9473C11.1279 11.365 10.3379 11.679 9.75025 12.2483C9.16263 12.8176 8.82528 13.5958 8.81207 14.4125V29.5875C8.82528 30.4042 9.16263 31.1824 9.75025 31.7517C10.3379 32.321 11.1279 32.635 11.9473 32.625H30.7586C31.578 32.635 32.368 32.321 32.9556 31.7517C33.5432 31.1824 33.8806 30.4042 33.8938 29.5875V18.85C33.8806 18.0333 33.5432 17.2551 32.9556 16.6858C32.368 16.1165 31.578 15.8025 30.7586 15.8125ZM31.3856 29.5625C31.3809 29.6392 31.3608 29.7142 31.3265 29.783C31.2922 29.8518 31.2444 29.9131 31.186 29.9632C31.1275 30.0133 31.0596 30.0512 30.9862 30.0747C30.9127 30.0982 30.8354 30.1068 30.7586 30.1H11.9473C11.8705 30.1068 11.7931 30.0982 11.7197 30.0747C11.6463 30.0512 11.5783 30.0133 11.5199 29.9632C11.4614 29.9131 11.4137 29.8518 11.3794 29.783C11.3451 29.7142 11.325 29.6392 11.3202 29.5625V14.4125C11.325 14.3358 11.3451 14.2608 11.3794 14.192C11.4137 14.1231 11.4614 14.0619 11.5199 14.0118C11.5783 13.9617 11.6463 13.9237 11.7197 13.9002C11.7931 13.8767 11.8705 13.8682 11.9473 13.875H17.1267L20.3873 17.85C20.504 17.9934 20.6511 18.1092 20.8181 18.1892C20.985 18.2692 21.1677 18.3113 21.3529 18.3125H30.7586C30.8354 18.3057 30.9127 18.3142 30.9862 18.3377C31.0596 18.3612 31.1275 18.3992 31.186 18.4493C31.2444 18.4994 31.2922 18.5606 31.3265 18.6295C31.3608 18.6983 31.3809 18.7733 31.3856 18.85V29.5625Z" fill="white" fill-opacity="0.38"/>
</svg>
