<svg width="171" height="66" viewBox="0 0 171 66" fill="none" xmlns="http://www.w3.org/2000/svg">
<g opacity="0.78">
<path d="M42.914 43.6667C48.8243 43.6667 53.6155 38.8911 53.6155 33C53.6155 27.109 48.8243 22.3334 42.914 22.3334C37.0037 22.3334 32.2125 27.109 32.2125 33C32.2125 38.8911 37.0037 43.6667 42.914 43.6667Z" fill="#19BCFE"/>
<path fill-rule="evenodd" clip-rule="evenodd" d="M21.511 65C24.3492 65 27.0712 63.8761 29.0781 61.8758C31.085 59.8754 32.2125 57.1623 32.2125 54.3333V43.6666H21.511C18.6728 43.6666 15.9508 44.7904 13.9439 46.7908C11.9369 48.7912 10.8094 51.5043 10.8094 54.3333C10.8094 57.1623 11.9369 59.8754 13.9439 61.8758C15.9508 63.8761 18.6728 65 21.511 65Z" fill="#09CF83"/>
<path fill-rule="evenodd" clip-rule="evenodd" d="M21.511 43.6667H32.2125V22.3334H21.511C18.6728 22.3334 15.9508 23.4572 13.9439 25.4576C11.9369 27.458 10.8094 30.1711 10.8094 33C10.8094 35.829 11.9369 38.5421 13.9439 40.5425C15.9508 42.5429 18.6728 43.6667 21.511 43.6667Z" fill="#A259FF"/>
<path fill-rule="evenodd" clip-rule="evenodd" d="M21.511 22.3333H32.2125V1H21.511C18.6728 1 15.9508 2.12381 13.9439 4.12419C11.9369 6.12458 10.8094 8.83769 10.8094 11.6667C10.8094 14.4956 11.9369 17.2088 13.9439 19.2091C15.9508 21.2095 18.6728 22.3333 21.511 22.3333Z" fill="#F24E1E"/>
<path fill-rule="evenodd" clip-rule="evenodd" d="M42.914 22.3333H32.2125V1H42.914C45.7522 1 48.4742 2.12381 50.4811 4.12419C52.488 6.12458 53.6155 8.83769 53.6155 11.6667C53.6155 14.4956 52.488 17.2088 50.4811 19.2091C48.4742 21.2095 45.7522 22.3333 42.914 22.3333Z" fill="#FF7262"/>
</g>
<path d="M106.031 9.32V11.552H98.951V16.472H104.471V18.704H98.951V26H96.215V9.32H106.031ZM111.303 9.32V26H108.567V9.32H111.303ZM126.967 14.12C126.535 13.288 125.935 12.664 125.167 12.248C124.399 11.816 123.511 11.6 122.503 11.6C121.399 11.6 120.415 11.848 119.551 12.344C118.687 12.84 118.007 13.544 117.511 14.456C117.031 15.368 116.791 16.424 116.791 17.624C116.791 18.824 117.031 19.888 117.511 20.816C118.007 21.728 118.687 22.432 119.551 22.928C120.415 23.424 121.399 23.672 122.503 23.672C123.991 23.672 125.199 23.256 126.127 22.424C127.055 21.592 127.623 20.464 127.831 19.04H121.567V16.856H130.759V18.992C130.583 20.288 130.119 21.48 129.367 22.568C128.631 23.656 127.663 24.528 126.463 25.184C125.279 25.824 123.959 26.144 122.503 26.144C120.935 26.144 119.503 25.784 118.207 25.064C116.911 24.328 115.879 23.312 115.111 22.016C114.359 20.72 113.983 19.256 113.983 17.624C113.983 15.992 114.359 14.528 115.111 13.232C115.879 11.936 116.911 10.928 118.207 10.208C119.519 9.472 120.951 9.104 122.503 9.104C124.279 9.104 125.855 9.544 127.231 10.424C128.623 11.288 129.631 12.52 130.255 14.12H126.967ZM151.025 9.32V26H148.289V14.576L143.201 26H141.305L136.193 14.576V26H133.457V9.32H136.409L142.265 22.4L148.097 9.32H151.025ZM164.677 22.592H157.693L156.493 26H153.637L159.613 9.296H162.781L168.757 26H165.877L164.677 22.592ZM163.909 20.36L161.197 12.608L158.461 20.36H163.909Z" fill="white" fill-opacity="0.78"/>
<path d="M102.893 46.454V47.786H97.439V52.016H101.867V53.348H97.439V59H95.801V46.454H102.893ZM106.509 50.738C106.797 50.174 107.205 49.736 107.733 49.424C108.273 49.112 108.927 48.956 109.695 48.956V50.648H109.263C107.427 50.648 106.509 51.644 106.509 53.636V59H104.871V49.136H106.509V50.738ZM120.586 53.69C120.586 54.002 120.568 54.332 120.532 54.68H112.648C112.708 55.652 113.038 56.414 113.638 56.966C114.25 57.506 114.988 57.776 115.852 57.776C116.56 57.776 117.148 57.614 117.616 57.29C118.096 56.954 118.432 56.51 118.624 55.958H120.388C120.124 56.906 119.596 57.68 118.804 58.28C118.012 58.868 117.028 59.162 115.852 59.162C114.916 59.162 114.076 58.952 113.332 58.532C112.6 58.112 112.024 57.518 111.604 56.75C111.184 55.97 110.974 55.07 110.974 54.05C110.974 53.03 111.178 52.136 111.586 51.368C111.994 50.6 112.564 50.012 113.296 49.604C114.04 49.184 114.892 48.974 115.852 48.974C116.788 48.974 117.616 49.178 118.336 49.586C119.056 49.994 119.608 50.558 119.992 51.278C120.388 51.986 120.586 52.79 120.586 53.69ZM118.894 53.348C118.894 52.724 118.756 52.19 118.48 51.746C118.204 51.29 117.826 50.948 117.346 50.72C116.878 50.48 116.356 50.36 115.78 50.36C114.952 50.36 114.244 50.624 113.656 51.152C113.08 51.68 112.75 52.412 112.666 53.348H118.894ZM131.748 53.69C131.748 54.002 131.73 54.332 131.694 54.68H123.81C123.87 55.652 124.2 56.414 124.8 56.966C125.412 57.506 126.15 57.776 127.014 57.776C127.722 57.776 128.31 57.614 128.778 57.29C129.258 56.954 129.594 56.51 129.786 55.958H131.55C131.286 56.906 130.758 57.68 129.966 58.28C129.174 58.868 128.19 59.162 127.014 59.162C126.078 59.162 125.238 58.952 124.494 58.532C123.762 58.112 123.186 57.518 122.766 56.75C122.346 55.97 122.136 55.07 122.136 54.05C122.136 53.03 122.34 52.136 122.748 51.368C123.156 50.6 123.726 50.012 124.458 49.604C125.202 49.184 126.054 48.974 127.014 48.974C127.95 48.974 128.778 49.178 129.498 49.586C130.218 49.994 130.77 50.558 131.154 51.278C131.55 51.986 131.748 52.79 131.748 53.69ZM130.056 53.348C130.056 52.724 129.918 52.19 129.642 51.746C129.366 51.29 128.988 50.948 128.508 50.72C128.04 50.48 127.518 50.36 126.942 50.36C126.114 50.36 125.406 50.624 124.818 51.152C124.242 51.68 123.912 52.412 123.828 53.348H130.056Z" fill="#FFA537" fill-opacity="0.55"/>
</svg>
