<svg width="198" height="66" viewBox="0 0 198 66" fill="none" xmlns="http://www.w3.org/2000/svg">
<g opacity="0.78" clip-path="url(#clip0_1_238)">
<path d="M0.826797 5C0.826797 2.79086 2.61766 1 4.8268 1H62.0392C64.2484 1 66.0392 2.79086 66.0392 5V60.8234C66.0392 63.0325 64.2484 64.8234 62.0392 64.8234H4.82679C2.61765 64.8234 0.826797 63.0325 0.826797 60.8234V5Z" fill="#FF0066"/>
<path d="M23.0169 21.5381C25.0795 21.5087 26.7302 19.8536 26.7103 17.8346C26.6902 15.8155 25.0072 14.192 22.9441 14.2017C20.881 14.2114 19.214 15.8506 19.2137 17.8698C19.2154 18.3556 19.3153 18.8363 19.5077 19.2842C19.7001 19.732 19.9812 20.1382 20.3347 20.4792C20.6883 20.8202 21.1073 21.0894 21.5677 21.2712C22.028 21.453 22.5206 21.5438 23.0169 21.5384V21.5381Z" fill="white"/>
<path d="M15.1314 41.178C14.9155 42.0813 14.8028 43.0053 14.7952 43.9329C14.7952 47.1622 16.5844 49.3065 20.3876 49.3065C23.5413 49.3065 26.1001 47.4736 27.9393 44.5123L26.8149 48.9288H33.0753L36.6568 34.8877C37.5515 31.3288 39.2834 29.4832 41.9128 29.4832C43.9813 29.4832 45.2674 30.7417 45.2674 32.8224C45.2776 33.4893 45.1834 34.154 44.9882 34.7932L43.144 41.2496C42.8802 42.1387 42.7485 43.0604 42.7529 43.9863C42.7529 47.0498 44.5972 49.2966 48.4549 49.2966C51.7548 49.2966 54.3842 47.2183 55.8372 42.2376L53.3772 41.3057C52.1461 44.6449 51.0846 45.2473 50.247 45.2473C49.4097 45.2473 48.9583 44.7013 48.9583 43.6058C48.9825 43.0311 49.0762 42.4612 49.2375 41.908L51.0296 35.6154C51.4319 34.3216 51.6394 32.9773 51.6453 31.625C51.6453 26.9173 48.7367 24.4615 45.2127 24.4615C41.9128 24.4615 38.5585 27.3742 36.881 30.4405L38.1096 24.9362H28.5494L27.2061 29.7868H31.6824L28.9279 40.5705C26.7627 45.2782 22.7875 45.3547 22.2892 45.245C21.47 45.0635 20.9483 44.7599 20.9483 43.713C20.9722 42.8656 21.1037 42.0244 21.3396 41.2087L25.5341 24.9235H14.9123L13.5717 29.7741H17.9878L15.1314 41.178Z" fill="white"/>
</g>
<path d="M100.436 9.32V26H97.7003V9.32H100.436ZM110.7 12.56C111.74 12.56 112.668 12.776 113.484 13.208C114.316 13.64 114.964 14.28 115.428 15.128C115.892 15.976 116.124 17 116.124 18.2V26H113.412V18.608C113.412 17.424 113.116 16.52 112.524 15.896C111.932 15.256 111.124 14.936 110.1 14.936C109.076 14.936 108.26 15.256 107.652 15.896C107.06 16.52 106.764 17.424 106.764 18.608V26H104.028V12.776H106.764V14.288C107.212 13.744 107.78 13.32 108.468 13.016C109.172 12.712 109.916 12.56 110.7 12.56ZM124.726 23.552L128.47 12.776H131.374L126.334 26H123.07L118.054 12.776H120.982L124.726 23.552ZM134.834 11.024C134.338 11.024 133.922 10.856 133.586 10.52C133.25 10.184 133.082 9.768 133.082 9.272C133.082 8.776 133.25 8.36 133.586 8.024C133.922 7.688 134.338 7.52 134.834 7.52C135.314 7.52 135.722 7.688 136.058 8.024C136.394 8.36 136.562 8.776 136.562 9.272C136.562 9.768 136.394 10.184 136.058 10.52C135.722 10.856 135.314 11.024 134.834 11.024ZM136.178 12.776V26H133.442V12.776H136.178ZM144.571 26.216C143.531 26.216 142.595 26.032 141.763 25.664C140.947 25.28 140.299 24.768 139.819 24.128C139.339 23.472 139.083 22.744 139.051 21.944H141.883C141.931 22.504 142.195 22.976 142.675 23.36C143.171 23.728 143.787 23.912 144.523 23.912C145.291 23.912 145.883 23.768 146.299 23.48C146.731 23.176 146.947 22.792 146.947 22.328C146.947 21.832 146.707 21.464 146.227 21.224C145.763 20.984 145.019 20.72 143.995 20.432C143.003 20.16 142.195 19.896 141.571 19.64C140.947 19.384 140.403 18.992 139.939 18.464C139.491 17.936 139.267 17.24 139.267 16.376C139.267 15.672 139.475 15.032 139.891 14.456C140.307 13.864 140.899 13.4 141.667 13.064C142.451 12.728 143.347 12.56 144.355 12.56C145.859 12.56 147.067 12.944 147.979 13.712C148.907 14.464 149.403 15.496 149.467 16.808H146.731C146.683 16.216 146.443 15.744 146.011 15.392C145.579 15.04 144.995 14.864 144.259 14.864C143.539 14.864 142.987 15 142.603 15.272C142.219 15.544 142.027 15.904 142.027 16.352C142.027 16.704 142.155 17 142.411 17.24C142.667 17.48 142.979 17.672 143.347 17.816C143.715 17.944 144.259 18.112 144.979 18.32C145.939 18.576 146.723 18.84 147.331 19.112C147.955 19.368 148.491 19.752 148.939 20.264C149.387 20.776 149.619 21.456 149.635 22.304C149.635 23.056 149.427 23.728 149.011 24.32C148.595 24.912 148.003 25.376 147.235 25.712C146.483 26.048 145.595 26.216 144.571 26.216ZM153.983 11.024C153.487 11.024 153.071 10.856 152.735 10.52C152.399 10.184 152.231 9.768 152.231 9.272C152.231 8.776 152.399 8.36 152.735 8.024C153.071 7.688 153.487 7.52 153.983 7.52C154.463 7.52 154.871 7.688 155.207 8.024C155.543 8.36 155.711 8.776 155.711 9.272C155.711 9.768 155.543 10.184 155.207 10.52C154.871 10.856 154.463 11.024 153.983 11.024ZM155.327 12.776V26H152.591V12.776H155.327ZM164.655 26.216C163.407 26.216 162.279 25.936 161.271 25.376C160.263 24.8 159.471 24 158.895 22.976C158.319 21.936 158.031 20.736 158.031 19.376C158.031 18.032 158.327 16.84 158.919 15.8C159.511 14.76 160.319 13.96 161.343 13.4C162.367 12.84 163.511 12.56 164.775 12.56C166.039 12.56 167.183 12.84 168.207 13.4C169.231 13.96 170.039 14.76 170.631 15.8C171.223 16.84 171.519 18.032 171.519 19.376C171.519 20.72 171.215 21.912 170.607 22.952C169.999 23.992 169.167 24.8 168.111 25.376C167.071 25.936 165.919 26.216 164.655 26.216ZM164.655 23.84C165.359 23.84 166.015 23.672 166.623 23.336C167.247 23 167.751 22.496 168.135 21.824C168.519 21.152 168.711 20.336 168.711 19.376C168.711 18.416 168.527 17.608 168.159 16.952C167.791 16.28 167.303 15.776 166.695 15.44C166.087 15.104 165.431 14.936 164.727 14.936C164.023 14.936 163.367 15.104 162.759 15.44C162.167 15.776 161.695 16.28 161.343 16.952C160.991 17.608 160.815 18.416 160.815 19.376C160.815 20.8 161.175 21.904 161.895 22.688C162.631 23.456 163.551 23.84 164.655 23.84ZM180.896 12.56C181.936 12.56 182.864 12.776 183.68 13.208C184.512 13.64 185.16 14.28 185.624 15.128C186.088 15.976 186.32 17 186.32 18.2V26H183.608V18.608C183.608 17.424 183.312 16.52 182.72 15.896C182.128 15.256 181.32 14.936 180.296 14.936C179.272 14.936 178.456 15.256 177.848 15.896C177.256 16.52 176.96 17.424 176.96 18.608V26H174.224V12.776H176.96V14.288C177.408 13.744 177.976 13.32 178.664 13.016C179.368 12.712 180.112 12.56 180.896 12.56Z" fill="white" fill-opacity="0.78"/>
<path d="M104.378 46.454V47.786H98.9243V52.016H103.352V53.348H98.9243V59H97.2863V46.454H104.378ZM107.995 50.738C108.283 50.174 108.691 49.736 109.219 49.424C109.759 49.112 110.413 48.956 111.181 48.956V50.648H110.749C108.913 50.648 107.995 51.644 107.995 53.636V59H106.357V49.136H107.995V50.738ZM122.071 53.69C122.071 54.002 122.053 54.332 122.017 54.68H114.133C114.193 55.652 114.523 56.414 115.123 56.966C115.735 57.506 116.473 57.776 117.337 57.776C118.045 57.776 118.633 57.614 119.101 57.29C119.581 56.954 119.917 56.51 120.109 55.958H121.873C121.609 56.906 121.081 57.68 120.289 58.28C119.497 58.868 118.513 59.162 117.337 59.162C116.401 59.162 115.561 58.952 114.817 58.532C114.085 58.112 113.509 57.518 113.089 56.75C112.669 55.97 112.459 55.07 112.459 54.05C112.459 53.03 112.663 52.136 113.071 51.368C113.479 50.6 114.049 50.012 114.781 49.604C115.525 49.184 116.377 48.974 117.337 48.974C118.273 48.974 119.101 49.178 119.821 49.586C120.541 49.994 121.093 50.558 121.477 51.278C121.873 51.986 122.071 52.79 122.071 53.69ZM120.379 53.348C120.379 52.724 120.241 52.19 119.965 51.746C119.689 51.29 119.311 50.948 118.831 50.72C118.363 50.48 117.841 50.36 117.265 50.36C116.437 50.36 115.729 50.624 115.141 51.152C114.565 51.68 114.235 52.412 114.151 53.348H120.379ZM133.234 53.69C133.234 54.002 133.216 54.332 133.18 54.68H125.296C125.356 55.652 125.686 56.414 126.286 56.966C126.898 57.506 127.636 57.776 128.5 57.776C129.208 57.776 129.796 57.614 130.264 57.29C130.744 56.954 131.08 56.51 131.272 55.958H133.036C132.772 56.906 132.244 57.68 131.452 58.28C130.66 58.868 129.676 59.162 128.5 59.162C127.564 59.162 126.724 58.952 125.98 58.532C125.248 58.112 124.672 57.518 124.252 56.75C123.832 55.97 123.622 55.07 123.622 54.05C123.622 53.03 123.826 52.136 124.234 51.368C124.642 50.6 125.212 50.012 125.944 49.604C126.688 49.184 127.54 48.974 128.5 48.974C129.436 48.974 130.264 49.178 130.984 49.586C131.704 49.994 132.256 50.558 132.64 51.278C133.036 51.986 133.234 52.79 133.234 53.69ZM131.542 53.348C131.542 52.724 131.404 52.19 131.128 51.746C130.852 51.29 130.474 50.948 129.994 50.72C129.526 50.48 129.004 50.36 128.428 50.36C127.6 50.36 126.892 50.624 126.304 51.152C125.728 51.68 125.398 52.412 125.314 53.348H131.542ZM149.825 59L148.187 57.344C147.575 57.98 146.921 58.454 146.225 58.766C145.529 59.066 144.743 59.216 143.867 59.216C143.003 59.216 142.235 59.06 141.563 58.748C140.903 58.436 140.387 57.992 140.015 57.416C139.655 56.84 139.475 56.168 139.475 55.4C139.475 54.524 139.721 53.756 140.213 53.096C140.717 52.424 141.455 51.896 142.427 51.512C142.043 51.056 141.767 50.636 141.599 50.252C141.431 49.868 141.347 49.448 141.347 48.992C141.347 48.464 141.479 47.99 141.743 47.57C142.019 47.138 142.409 46.802 142.913 46.562C143.417 46.322 143.999 46.202 144.659 46.202C145.307 46.202 145.871 46.328 146.351 46.58C146.831 46.832 147.191 47.186 147.431 47.642C147.671 48.086 147.779 48.584 147.755 49.136H146.117C146.129 48.644 145.991 48.26 145.703 47.984C145.415 47.696 145.043 47.552 144.587 47.552C144.107 47.552 143.717 47.69 143.417 47.966C143.129 48.23 142.985 48.572 142.985 48.992C142.985 49.352 143.081 49.7 143.273 50.036C143.477 50.372 143.813 50.786 144.281 51.278L148.025 55.04L148.349 54.536L149.573 52.484H151.337L149.861 55.04C149.657 55.4 149.417 55.778 149.141 56.174L151.967 59H149.825ZM143.867 57.812C144.515 57.812 145.097 57.686 145.613 57.434C146.141 57.182 146.639 56.792 147.107 56.264L143.417 52.556C141.881 53.144 141.113 54.074 141.113 55.346C141.113 56.054 141.365 56.642 141.869 57.11C142.385 57.578 143.051 57.812 143.867 57.812ZM166.688 50.126C166.688 51.17 166.328 52.04 165.608 52.736C164.9 53.42 163.814 53.762 162.35 53.762H159.938V59H158.3V46.454H162.35C163.766 46.454 164.84 46.796 165.572 47.48C166.316 48.164 166.688 49.046 166.688 50.126ZM162.35 52.412C163.262 52.412 163.934 52.214 164.366 51.818C164.798 51.422 165.014 50.858 165.014 50.126C165.014 48.578 164.126 47.804 162.35 47.804H159.938V52.412H162.35ZM168.112 54.032C168.112 53.024 168.316 52.142 168.724 51.386C169.132 50.618 169.69 50.024 170.398 49.604C171.118 49.184 171.916 48.974 172.792 48.974C173.656 48.974 174.406 49.16 175.042 49.532C175.678 49.904 176.152 50.372 176.464 50.936V49.136H178.12V59H176.464V57.164C176.14 57.74 175.654 58.22 175.006 58.604C174.37 58.976 173.626 59.162 172.774 59.162C171.898 59.162 171.106 58.946 170.398 58.514C169.69 58.082 169.132 57.476 168.724 56.696C168.316 55.916 168.112 55.028 168.112 54.032ZM176.464 54.05C176.464 53.306 176.314 52.658 176.014 52.106C175.714 51.554 175.306 51.134 174.79 50.846C174.286 50.546 173.728 50.396 173.116 50.396C172.504 50.396 171.946 50.54 171.442 50.828C170.938 51.116 170.536 51.536 170.236 52.088C169.936 52.64 169.786 53.288 169.786 54.032C169.786 54.788 169.936 55.448 170.236 56.012C170.536 56.564 170.938 56.99 171.442 57.29C171.946 57.578 172.504 57.722 173.116 57.722C173.728 57.722 174.286 57.578 174.79 57.29C175.306 56.99 175.714 56.564 176.014 56.012C176.314 55.448 176.464 54.794 176.464 54.05ZM181.734 47.534C181.422 47.534 181.158 47.426 180.942 47.21C180.726 46.994 180.618 46.73 180.618 46.418C180.618 46.106 180.726 45.842 180.942 45.626C181.158 45.41 181.422 45.302 181.734 45.302C182.034 45.302 182.286 45.41 182.49 45.626C182.706 45.842 182.814 46.106 182.814 46.418C182.814 46.73 182.706 46.994 182.49 47.21C182.286 47.426 182.034 47.534 181.734 47.534ZM182.526 49.136V59H180.888V49.136H182.526ZM184.706 54.032C184.706 53.024 184.91 52.142 185.318 51.386C185.726 50.618 186.284 50.024 186.992 49.604C187.712 49.184 188.516 48.974 189.404 48.974C190.172 48.974 190.886 49.154 191.546 49.514C192.206 49.862 192.71 50.324 193.058 50.9V45.68H194.714V59H193.058V57.146C192.734 57.734 192.254 58.22 191.618 58.604C190.982 58.976 190.238 59.162 189.386 59.162C188.51 59.162 187.712 58.946 186.992 58.514C186.284 58.082 185.726 57.476 185.318 56.696C184.91 55.916 184.706 55.028 184.706 54.032ZM193.058 54.05C193.058 53.306 192.908 52.658 192.608 52.106C192.308 51.554 191.9 51.134 191.384 50.846C190.88 50.546 190.322 50.396 189.71 50.396C189.098 50.396 188.54 50.54 188.036 50.828C187.532 51.116 187.13 51.536 186.83 52.088C186.53 52.64 186.38 53.288 186.38 54.032C186.38 54.788 186.53 55.448 186.83 56.012C187.13 56.564 187.532 56.99 188.036 57.29C188.54 57.578 189.098 57.722 189.71 57.722C190.322 57.722 190.88 57.578 191.384 57.29C191.9 56.99 192.308 56.564 192.608 56.012C192.908 55.448 193.058 54.794 193.058 54.05Z" fill="#FFA537" fill-opacity="0.55"/>
<defs>
<clipPath id="clip0_1_238">
<rect width="65.2124" height="63.8234" fill="white" transform="translate(0.826797 1)"/>
</clipPath>
</defs>
</svg>
