<svg width="196" height="66" viewBox="0 0 196 66" fill="none" xmlns="http://www.w3.org/2000/svg">
<g opacity="0.78">
<path fill-rule="evenodd" clip-rule="evenodd" d="M11.5772 59.4356L4.676 50.8663C3.01557 48.8045 2.11438 46.2692 2.11438 43.6597V12.63C2.11438 8.72128 5.25177 5.47794 9.29921 5.2025L41.3063 3.02437C43.6316 2.86612 45.9428 3.48218 47.8529 4.76941L59.0985 12.3478C61.1115 13.7044 62.3105 15.922 62.3105 18.2885V53.5663C62.3105 57.3915 59.2255 60.5586 55.2627 60.8017L19.7385 62.9813C16.5762 63.1754 13.5195 61.8474 11.5772 59.4356Z" fill="white"/>
<path d="M22.6777 28.1574V27.7512C22.6777 26.7214 23.5051 25.8673 24.5716 25.7964L32.3395 25.2794L43.082 41.047V27.2083L40.3169 26.8409V26.6479C40.3169 25.6061 41.1633 24.7464 42.2434 24.6912L49.3114 24.3303V25.3442C49.3114 25.8201 48.9563 26.2272 48.4697 26.3092L46.7688 26.596V49.0074L44.6342 49.7391C42.8508 50.3504 40.8655 49.696 39.8446 48.1605L29.4155 32.4744V47.4459L32.6256 48.0583L32.5809 48.355C32.4408 49.2847 31.6356 49.9877 30.6615 50.0309L22.6777 50.3851C22.5721 49.3855 23.3238 48.4911 24.3608 48.3825L25.4109 48.2726V28.3105L22.6777 28.1574Z" fill="black"/>
<path fill-rule="evenodd" clip-rule="evenodd" d="M41.5929 6.93356L9.58577 9.1117C7.66857 9.24217 6.18243 10.7785 6.18243 12.63V43.6598C6.18243 45.3994 6.78323 47.0896 7.89018 48.4641L14.7914 57.0334C15.9072 58.4189 17.6631 59.1818 19.4798 59.0703L55.0041 56.8907C56.8248 56.779 58.2422 55.3239 58.2422 53.5663V18.2885C58.2422 17.2012 57.6913 16.1823 56.7664 15.559L45.5208 7.98059C44.3747 7.20825 42.988 6.83862 41.5929 6.93356ZM11.1729 13.114C10.7278 12.7855 10.9396 12.1011 11.4989 12.0611L41.8082 9.89422C42.7739 9.82518 43.7335 10.0902 44.5145 10.6418L50.5958 14.9363C50.8267 15.0993 50.7184 15.4513 50.4325 15.4668L18.3351 17.2067C17.3637 17.2594 16.4049 16.9749 15.6326 16.405L11.1729 13.114ZM16.8296 22.6614C16.8296 21.6221 17.672 20.7635 18.7492 20.7051L52.6853 18.8629C53.7352 18.8059 54.619 19.6107 54.619 20.6236V51.1705C54.619 52.208 53.7795 53.0656 52.7044 53.1266L18.9832 55.0391C17.8148 55.1053 16.8296 54.2104 16.8296 53.083V22.6614Z" fill="black"/>
</g>
<path d="M109.919 26H107.183L98.951 13.544V26H96.215V9.296H98.951L107.183 21.728V9.296H109.919V26ZM119.248 26.216C118 26.216 116.872 25.936 115.864 25.376C114.856 24.8 114.064 24 113.488 22.976C112.912 21.936 112.624 20.736 112.624 19.376C112.624 18.032 112.92 16.84 113.512 15.8C114.104 14.76 114.912 13.96 115.936 13.4C116.96 12.84 118.104 12.56 119.368 12.56C120.632 12.56 121.776 12.84 122.8 13.4C123.824 13.96 124.632 14.76 125.224 15.8C125.816 16.84 126.112 18.032 126.112 19.376C126.112 20.72 125.808 21.912 125.2 22.952C124.592 23.992 123.76 24.8 122.704 25.376C121.664 25.936 120.512 26.216 119.248 26.216ZM119.248 23.84C119.952 23.84 120.608 23.672 121.216 23.336C121.84 23 122.344 22.496 122.728 21.824C123.112 21.152 123.304 20.336 123.304 19.376C123.304 18.416 123.12 17.608 122.752 16.952C122.384 16.28 121.896 15.776 121.288 15.44C120.68 15.104 120.024 14.936 119.32 14.936C118.616 14.936 117.96 15.104 117.352 15.44C116.76 15.776 116.288 16.28 115.936 16.952C115.584 17.608 115.408 18.416 115.408 19.376C115.408 20.8 115.768 21.904 116.488 22.688C117.224 23.456 118.144 23.84 119.248 23.84ZM132.009 15.008V22.328C132.009 22.824 132.121 23.184 132.345 23.408C132.585 23.616 132.985 23.72 133.545 23.72H135.225V26H133.065C131.833 26 130.889 25.712 130.233 25.136C129.577 24.56 129.249 23.624 129.249 22.328V15.008H127.689V12.776H129.249V9.488H132.009V12.776H135.225V15.008H132.009ZM139.138 11.024C138.642 11.024 138.226 10.856 137.89 10.52C137.554 10.184 137.386 9.768 137.386 9.272C137.386 8.776 137.554 8.36 137.89 8.024C138.226 7.688 138.642 7.52 139.138 7.52C139.618 7.52 140.026 7.688 140.362 8.024C140.698 8.36 140.866 8.776 140.866 9.272C140.866 9.768 140.698 10.184 140.362 10.52C140.026 10.856 139.618 11.024 139.138 11.024ZM140.482 12.776V26H137.746V12.776H140.482ZM149.81 26.216C148.562 26.216 147.434 25.936 146.426 25.376C145.418 24.8 144.626 24 144.05 22.976C143.474 21.936 143.186 20.736 143.186 19.376C143.186 18.032 143.482 16.84 144.074 15.8C144.666 14.76 145.474 13.96 146.498 13.4C147.522 12.84 148.666 12.56 149.93 12.56C151.194 12.56 152.338 12.84 153.362 13.4C154.386 13.96 155.194 14.76 155.786 15.8C156.378 16.84 156.674 18.032 156.674 19.376C156.674 20.72 156.37 21.912 155.762 22.952C155.154 23.992 154.322 24.8 153.266 25.376C152.226 25.936 151.074 26.216 149.81 26.216ZM149.81 23.84C150.514 23.84 151.17 23.672 151.778 23.336C152.402 23 152.906 22.496 153.29 21.824C153.674 21.152 153.866 20.336 153.866 19.376C153.866 18.416 153.682 17.608 153.314 16.952C152.946 16.28 152.458 15.776 151.85 15.44C151.242 15.104 150.586 14.936 149.882 14.936C149.178 14.936 148.522 15.104 147.914 15.44C147.322 15.776 146.85 16.28 146.498 16.952C146.146 17.608 145.97 18.416 145.97 19.376C145.97 20.8 146.33 21.904 147.05 22.688C147.786 23.456 148.706 23.84 149.81 23.84ZM166.051 12.56C167.091 12.56 168.019 12.776 168.835 13.208C169.667 13.64 170.315 14.28 170.779 15.128C171.243 15.976 171.475 17 171.475 18.2V26H168.763V18.608C168.763 17.424 168.467 16.52 167.875 15.896C167.283 15.256 166.475 14.936 165.451 14.936C164.427 14.936 163.611 15.256 163.003 15.896C162.411 16.52 162.115 17.424 162.115 18.608V26H159.379V12.776H162.115V14.288C162.563 13.744 163.131 13.32 163.819 13.016C164.523 12.712 165.267 12.56 166.051 12.56Z" fill="white" fill-opacity="0.78"/>
<path d="M102.893 46.454V47.786H97.439V52.016H101.867V53.348H97.439V59H95.801V46.454H102.893ZM106.509 50.738C106.797 50.174 107.205 49.736 107.733 49.424C108.273 49.112 108.927 48.956 109.695 48.956V50.648H109.263C107.427 50.648 106.509 51.644 106.509 53.636V59H104.871V49.136H106.509V50.738ZM120.586 53.69C120.586 54.002 120.568 54.332 120.532 54.68H112.648C112.708 55.652 113.038 56.414 113.638 56.966C114.25 57.506 114.988 57.776 115.852 57.776C116.56 57.776 117.148 57.614 117.616 57.29C118.096 56.954 118.432 56.51 118.624 55.958H120.388C120.124 56.906 119.596 57.68 118.804 58.28C118.012 58.868 117.028 59.162 115.852 59.162C114.916 59.162 114.076 58.952 113.332 58.532C112.6 58.112 112.024 57.518 111.604 56.75C111.184 55.97 110.974 55.07 110.974 54.05C110.974 53.03 111.178 52.136 111.586 51.368C111.994 50.6 112.564 50.012 113.296 49.604C114.04 49.184 114.892 48.974 115.852 48.974C116.788 48.974 117.616 49.178 118.336 49.586C119.056 49.994 119.608 50.558 119.992 51.278C120.388 51.986 120.586 52.79 120.586 53.69ZM118.894 53.348C118.894 52.724 118.756 52.19 118.48 51.746C118.204 51.29 117.826 50.948 117.346 50.72C116.878 50.48 116.356 50.36 115.78 50.36C114.952 50.36 114.244 50.624 113.656 51.152C113.08 51.68 112.75 52.412 112.666 53.348H118.894ZM131.748 53.69C131.748 54.002 131.73 54.332 131.694 54.68H123.81C123.87 55.652 124.2 56.414 124.8 56.966C125.412 57.506 126.15 57.776 127.014 57.776C127.722 57.776 128.31 57.614 128.778 57.29C129.258 56.954 129.594 56.51 129.786 55.958H131.55C131.286 56.906 130.758 57.68 129.966 58.28C129.174 58.868 128.19 59.162 127.014 59.162C126.078 59.162 125.238 58.952 124.494 58.532C123.762 58.112 123.186 57.518 122.766 56.75C122.346 55.97 122.136 55.07 122.136 54.05C122.136 53.03 122.34 52.136 122.748 51.368C123.156 50.6 123.726 50.012 124.458 49.604C125.202 49.184 126.054 48.974 127.014 48.974C127.95 48.974 128.778 49.178 129.498 49.586C130.218 49.994 130.77 50.558 131.154 51.278C131.55 51.986 131.748 52.79 131.748 53.69ZM130.056 53.348C130.056 52.724 129.918 52.19 129.642 51.746C129.366 51.29 128.988 50.948 128.508 50.72C128.04 50.48 127.518 50.36 126.942 50.36C126.114 50.36 125.406 50.624 124.818 51.152C124.242 51.68 123.912 52.412 123.828 53.348H130.056ZM148.339 59L146.701 57.344C146.089 57.98 145.435 58.454 144.739 58.766C144.043 59.066 143.257 59.216 142.381 59.216C141.517 59.216 140.749 59.06 140.077 58.748C139.417 58.436 138.901 57.992 138.529 57.416C138.169 56.84 137.989 56.168 137.989 55.4C137.989 54.524 138.235 53.756 138.727 53.096C139.231 52.424 139.969 51.896 140.941 51.512C140.557 51.056 140.281 50.636 140.113 50.252C139.945 49.868 139.861 49.448 139.861 48.992C139.861 48.464 139.993 47.99 140.257 47.57C140.533 47.138 140.923 46.802 141.427 46.562C141.931 46.322 142.513 46.202 143.173 46.202C143.821 46.202 144.385 46.328 144.865 46.58C145.345 46.832 145.705 47.186 145.945 47.642C146.185 48.086 146.293 48.584 146.269 49.136H144.631C144.643 48.644 144.505 48.26 144.217 47.984C143.929 47.696 143.557 47.552 143.101 47.552C142.621 47.552 142.231 47.69 141.931 47.966C141.643 48.23 141.499 48.572 141.499 48.992C141.499 49.352 141.595 49.7 141.787 50.036C141.991 50.372 142.327 50.786 142.795 51.278L146.539 55.04L146.863 54.536L148.087 52.484H149.851L148.375 55.04C148.171 55.4 147.931 55.778 147.655 56.174L150.481 59H148.339ZM142.381 57.812C143.029 57.812 143.611 57.686 144.127 57.434C144.655 57.182 145.153 56.792 145.621 56.264L141.931 52.556C140.395 53.144 139.627 54.074 139.627 55.346C139.627 56.054 139.879 56.642 140.383 57.11C140.899 57.578 141.565 57.812 142.381 57.812ZM165.203 50.126C165.203 51.17 164.843 52.04 164.123 52.736C163.415 53.42 162.329 53.762 160.865 53.762H158.453V59H156.815V46.454H160.865C162.281 46.454 163.355 46.796 164.087 47.48C164.831 48.164 165.203 49.046 165.203 50.126ZM160.865 52.412C161.777 52.412 162.449 52.214 162.881 51.818C163.313 51.422 163.529 50.858 163.529 50.126C163.529 48.578 162.641 47.804 160.865 47.804H158.453V52.412H160.865ZM166.627 54.032C166.627 53.024 166.831 52.142 167.239 51.386C167.647 50.618 168.205 50.024 168.913 49.604C169.633 49.184 170.431 48.974 171.307 48.974C172.171 48.974 172.921 49.16 173.557 49.532C174.193 49.904 174.667 50.372 174.979 50.936V49.136H176.635V59H174.979V57.164C174.655 57.74 174.169 58.22 173.521 58.604C172.885 58.976 172.141 59.162 171.289 59.162C170.413 59.162 169.621 58.946 168.913 58.514C168.205 58.082 167.647 57.476 167.239 56.696C166.831 55.916 166.627 55.028 166.627 54.032ZM174.979 54.05C174.979 53.306 174.829 52.658 174.529 52.106C174.229 51.554 173.821 51.134 173.305 50.846C172.801 50.546 172.243 50.396 171.631 50.396C171.019 50.396 170.461 50.54 169.957 50.828C169.453 51.116 169.051 51.536 168.751 52.088C168.451 52.64 168.301 53.288 168.301 54.032C168.301 54.788 168.451 55.448 168.751 56.012C169.051 56.564 169.453 56.99 169.957 57.29C170.461 57.578 171.019 57.722 171.631 57.722C172.243 57.722 172.801 57.578 173.305 57.29C173.821 56.99 174.229 56.564 174.529 56.012C174.829 55.448 174.979 54.794 174.979 54.05ZM180.249 47.534C179.937 47.534 179.673 47.426 179.457 47.21C179.241 46.994 179.133 46.73 179.133 46.418C179.133 46.106 179.241 45.842 179.457 45.626C179.673 45.41 179.937 45.302 180.249 45.302C180.549 45.302 180.801 45.41 181.005 45.626C181.221 45.842 181.329 46.106 181.329 46.418C181.329 46.73 181.221 46.994 181.005 47.21C180.801 47.426 180.549 47.534 180.249 47.534ZM181.041 49.136V59H179.403V49.136H181.041ZM183.22 54.032C183.22 53.024 183.424 52.142 183.832 51.386C184.24 50.618 184.798 50.024 185.506 49.604C186.226 49.184 187.03 48.974 187.918 48.974C188.686 48.974 189.4 49.154 190.06 49.514C190.72 49.862 191.224 50.324 191.572 50.9V45.68H193.228V59H191.572V57.146C191.248 57.734 190.768 58.22 190.132 58.604C189.496 58.976 188.752 59.162 187.9 59.162C187.024 59.162 186.226 58.946 185.506 58.514C184.798 58.082 184.24 57.476 183.832 56.696C183.424 55.916 183.22 55.028 183.22 54.032ZM191.572 54.05C191.572 53.306 191.422 52.658 191.122 52.106C190.822 51.554 190.414 51.134 189.898 50.846C189.394 50.546 188.836 50.396 188.224 50.396C187.612 50.396 187.054 50.54 186.55 50.828C186.046 51.116 185.644 51.536 185.344 52.088C185.044 52.64 184.894 53.288 184.894 54.032C184.894 54.788 185.044 55.448 185.344 56.012C185.644 56.564 186.046 56.99 186.55 57.29C187.054 57.578 187.612 57.722 188.224 57.722C188.836 57.722 189.394 57.578 189.898 57.29C190.414 56.99 190.822 56.564 191.122 56.012C191.422 55.448 191.572 54.794 191.572 54.05Z" fill="#FFA537" fill-opacity="0.55"/>
</svg>
