<svg width="196" height="66" viewBox="0 0 196 66" fill="none" xmlns="http://www.w3.org/2000/svg">
<g clip-path="url(#clip0_1_326)">
<path d="M32.5752 5L14.48 6.87248L0.470581 25.2781L32.5752 61.867L64.6797 25.2779L50.6706 6.87248L32.5752 5Z" fill="#FDB300"/>
<path d="M0.470581 25.2782L32.5752 61.8671L13.4744 25.2782H0.470581Z" fill="#EB6C00"/>
<path d="M51.6756 25.2782L32.5752 61.8671L64.6797 25.2782H51.6756Z" fill="#EB6C00"/>
<path d="M13.4746 25.2782L32.5754 61.8671L51.6761 25.2782H13.4746Z" fill="#FDAD00"/>
<path d="M14.4798 6.87248L13.474 25.2781L32.575 5L14.4798 6.87248Z" fill="#FDD231"/>
<path d="M51.6756 25.2781L50.6704 6.87248L32.5752 5L51.6756 25.2781Z" fill="#FDD231"/>
<path d="M51.6757 25.2781H64.6796L50.6704 6.87244L51.6757 25.2781Z" fill="#FDAD00"/>
<path d="M0.470581 25.2781H13.4744L14.48 6.87244L0.470581 25.2781Z" fill="#FDAD00"/>
<path d="M32.5754 5L13.4746 25.2779H51.6761L32.5754 5Z" fill="#FEEEB7"/>
</g>
<path d="M102.074 26.168C100.954 26.168 99.9458 25.976 99.0498 25.592C98.1538 25.192 97.4498 24.632 96.9378 23.912C96.4258 23.192 96.1698 22.352 96.1698 21.392H99.0978C99.1618 22.112 99.4418 22.704 99.9378 23.168C100.45 23.632 101.162 23.864 102.074 23.864C103.018 23.864 103.754 23.64 104.282 23.192C104.81 22.728 105.074 22.136 105.074 21.416C105.074 20.856 104.906 20.4 104.57 20.048C104.25 19.696 103.842 19.424 103.346 19.232C102.866 19.04 102.194 18.832 101.33 18.608C100.242 18.32 99.3538 18.032 98.6658 17.744C97.9938 17.44 97.4178 16.976 96.9378 16.352C96.4578 15.728 96.2178 14.896 96.2178 13.856C96.2178 12.896 96.4578 12.056 96.9378 11.336C97.4178 10.616 98.0898 10.064 98.9538 9.68C99.8178 9.296 100.818 9.104 101.954 9.104C103.57 9.104 104.89 9.512 105.914 10.328C106.954 11.128 107.53 12.232 107.642 13.64H104.618C104.57 13.032 104.282 12.512 103.754 12.08C103.226 11.648 102.53 11.432 101.666 11.432C100.882 11.432 100.242 11.632 99.7458 12.032C99.2498 12.432 99.0018 13.008 99.0018 13.76C99.0018 14.272 99.1538 14.696 99.4578 15.032C99.7778 15.352 100.178 15.608 100.658 15.8C101.138 15.992 101.794 16.2 102.626 16.424C103.73 16.728 104.626 17.032 105.314 17.336C106.018 17.64 106.61 18.112 107.09 18.752C107.586 19.376 107.834 20.216 107.834 21.272C107.834 22.12 107.602 22.92 107.138 23.672C106.69 24.424 106.026 25.032 105.146 25.496C104.282 25.944 103.258 26.168 102.074 26.168ZM116.294 19.4L122.39 26H118.694L113.798 20.312V26H111.062V8.24H113.798V18.56L118.598 12.776H122.39L116.294 19.4ZM136.471 19.064C136.471 19.56 136.439 20.008 136.375 20.408H126.271C126.351 21.464 126.743 22.312 127.447 22.952C128.151 23.592 129.015 23.912 130.039 23.912C131.511 23.912 132.551 23.296 133.159 22.064H136.111C135.711 23.28 134.983 24.28 133.927 25.064C132.887 25.832 131.591 26.216 130.039 26.216C128.775 26.216 127.639 25.936 126.631 25.376C125.639 24.8 124.855 24 124.279 22.976C123.719 21.936 123.439 20.736 123.439 19.376C123.439 18.016 123.711 16.824 124.255 15.8C124.815 14.76 125.591 13.96 126.583 13.4C127.591 12.84 128.743 12.56 130.039 12.56C131.287 12.56 132.399 12.832 133.375 13.376C134.351 13.92 135.111 14.688 135.655 15.68C136.199 16.656 136.471 17.784 136.471 19.064ZM133.615 18.2C133.599 17.192 133.239 16.384 132.535 15.776C131.831 15.168 130.959 14.864 129.919 14.864C128.975 14.864 128.167 15.168 127.495 15.776C126.823 16.368 126.423 17.176 126.295 18.2H133.615ZM142.356 15.008V22.328C142.356 22.824 142.468 23.184 142.692 23.408C142.932 23.616 143.332 23.72 143.892 23.72H145.572V26H143.412C142.18 26 141.236 25.712 140.58 25.136C139.924 24.56 139.596 23.624 139.596 22.328V15.008H138.036V12.776H139.596V9.488H142.356V12.776H145.572V15.008H142.356ZM147.181 19.376C147.181 18.016 147.453 16.824 147.997 15.8C148.557 14.76 149.325 13.96 150.301 13.4C151.277 12.84 152.397 12.56 153.661 12.56C155.261 12.56 156.581 12.944 157.621 13.712C158.677 14.464 159.389 15.544 159.757 16.952H156.805C156.565 16.296 156.181 15.784 155.653 15.416C155.125 15.048 154.461 14.864 153.661 14.864C152.541 14.864 151.645 15.264 150.973 16.064C150.317 16.848 149.989 17.952 149.989 19.376C149.989 20.8 150.317 21.912 150.973 22.712C151.645 23.512 152.541 23.912 153.661 23.912C155.245 23.912 156.293 23.216 156.805 21.824H159.757C159.373 23.168 158.653 24.24 157.597 25.04C156.541 25.824 155.229 26.216 153.661 26.216C152.397 26.216 151.277 25.936 150.301 25.376C149.325 24.8 148.557 24 147.997 22.976C147.453 21.936 147.181 20.736 147.181 19.376ZM169.324 12.56C170.332 12.56 171.228 12.776 172.012 13.208C172.812 13.64 173.436 14.28 173.884 15.128C174.348 15.976 174.58 17 174.58 18.2V26H171.868V18.608C171.868 17.424 171.572 16.52 170.98 15.896C170.388 15.256 169.58 14.936 168.556 14.936C167.532 14.936 166.716 15.256 166.108 15.896C165.516 16.52 165.22 17.424 165.22 18.608V26H162.484V8.24H165.22V14.312C165.684 13.752 166.268 13.32 166.972 13.016C167.692 12.712 168.476 12.56 169.324 12.56Z" fill="white" fill-opacity="0.9"/>
<path d="M103.886 46.454V47.786H100.466V59H98.8278V47.786H95.3898V46.454H103.886ZM107.54 50.738C107.828 50.174 108.236 49.736 108.764 49.424C109.304 49.112 109.958 48.956 110.726 48.956V50.648H110.294C108.458 50.648 107.54 51.644 107.54 53.636V59H105.902V49.136H107.54V50.738ZM113.463 47.534C113.151 47.534 112.887 47.426 112.671 47.21C112.455 46.994 112.347 46.73 112.347 46.418C112.347 46.106 112.455 45.842 112.671 45.626C112.887 45.41 113.151 45.302 113.463 45.302C113.763 45.302 114.015 45.41 114.219 45.626C114.435 45.842 114.543 46.106 114.543 46.418C114.543 46.73 114.435 46.994 114.219 47.21C114.015 47.426 113.763 47.534 113.463 47.534ZM114.255 49.136V59H112.617V49.136H114.255ZM116.435 54.032C116.435 53.024 116.639 52.142 117.047 51.386C117.455 50.618 118.013 50.024 118.721 49.604C119.441 49.184 120.239 48.974 121.115 48.974C121.979 48.974 122.729 49.16 123.365 49.532C124.001 49.904 124.475 50.372 124.787 50.936V49.136H126.443V59H124.787V57.164C124.463 57.74 123.977 58.22 123.329 58.604C122.693 58.976 121.949 59.162 121.097 59.162C120.221 59.162 119.429 58.946 118.721 58.514C118.013 58.082 117.455 57.476 117.047 56.696C116.639 55.916 116.435 55.028 116.435 54.032ZM124.787 54.05C124.787 53.306 124.637 52.658 124.337 52.106C124.037 51.554 123.629 51.134 123.113 50.846C122.609 50.546 122.051 50.396 121.439 50.396C120.827 50.396 120.269 50.54 119.765 50.828C119.261 51.116 118.859 51.536 118.559 52.088C118.259 52.64 118.109 53.288 118.109 54.032C118.109 54.788 118.259 55.448 118.559 56.012C118.859 56.564 119.261 56.99 119.765 57.29C120.269 57.578 120.827 57.722 121.439 57.722C122.051 57.722 122.609 57.578 123.113 57.29C123.629 56.99 124.037 56.564 124.337 56.012C124.637 55.448 124.787 54.794 124.787 54.05ZM130.849 45.68V59H129.211V45.68H130.849ZM148.069 59L146.431 57.344C145.819 57.98 145.165 58.454 144.469 58.766C143.773 59.066 142.987 59.216 142.111 59.216C141.247 59.216 140.479 59.06 139.807 58.748C139.147 58.436 138.631 57.992 138.259 57.416C137.899 56.84 137.719 56.168 137.719 55.4C137.719 54.524 137.965 53.756 138.457 53.096C138.961 52.424 139.699 51.896 140.671 51.512C140.287 51.056 140.011 50.636 139.843 50.252C139.675 49.868 139.591 49.448 139.591 48.992C139.591 48.464 139.723 47.99 139.987 47.57C140.263 47.138 140.653 46.802 141.157 46.562C141.661 46.322 142.243 46.202 142.903 46.202C143.551 46.202 144.115 46.328 144.595 46.58C145.075 46.832 145.435 47.186 145.675 47.642C145.915 48.086 146.023 48.584 145.999 49.136H144.361C144.373 48.644 144.235 48.26 143.947 47.984C143.659 47.696 143.287 47.552 142.831 47.552C142.351 47.552 141.961 47.69 141.661 47.966C141.373 48.23 141.229 48.572 141.229 48.992C141.229 49.352 141.325 49.7 141.517 50.036C141.721 50.372 142.057 50.786 142.525 51.278L146.269 55.04L146.593 54.536L147.817 52.484H149.581L148.105 55.04C147.901 55.4 147.661 55.778 147.385 56.174L150.211 59H148.069ZM142.111 57.812C142.759 57.812 143.341 57.686 143.857 57.434C144.385 57.182 144.883 56.792 145.351 56.264L141.661 52.556C140.125 53.144 139.357 54.074 139.357 55.346C139.357 56.054 139.609 56.642 140.113 57.11C140.629 57.578 141.295 57.812 142.111 57.812ZM164.933 50.126C164.933 51.17 164.573 52.04 163.853 52.736C163.145 53.42 162.059 53.762 160.595 53.762H158.183V59H156.545V46.454H160.595C162.011 46.454 163.085 46.796 163.817 47.48C164.561 48.164 164.933 49.046 164.933 50.126ZM160.595 52.412C161.507 52.412 162.179 52.214 162.611 51.818C163.043 51.422 163.259 50.858 163.259 50.126C163.259 48.578 162.371 47.804 160.595 47.804H158.183V52.412H160.595ZM166.356 54.032C166.356 53.024 166.56 52.142 166.968 51.386C167.376 50.618 167.934 50.024 168.642 49.604C169.362 49.184 170.16 48.974 171.036 48.974C171.9 48.974 172.65 49.16 173.286 49.532C173.922 49.904 174.396 50.372 174.708 50.936V49.136H176.364V59H174.708V57.164C174.384 57.74 173.898 58.22 173.25 58.604C172.614 58.976 171.87 59.162 171.018 59.162C170.142 59.162 169.35 58.946 168.642 58.514C167.934 58.082 167.376 57.476 166.968 56.696C166.56 55.916 166.356 55.028 166.356 54.032ZM174.708 54.05C174.708 53.306 174.558 52.658 174.258 52.106C173.958 51.554 173.55 51.134 173.034 50.846C172.53 50.546 171.972 50.396 171.36 50.396C170.748 50.396 170.19 50.54 169.686 50.828C169.182 51.116 168.78 51.536 168.48 52.088C168.18 52.64 168.03 53.288 168.03 54.032C168.03 54.788 168.18 55.448 168.48 56.012C168.78 56.564 169.182 56.99 169.686 57.29C170.19 57.578 170.748 57.722 171.36 57.722C171.972 57.722 172.53 57.578 173.034 57.29C173.55 56.99 173.958 56.564 174.258 56.012C174.558 55.448 174.708 54.794 174.708 54.05ZM179.979 47.534C179.667 47.534 179.403 47.426 179.187 47.21C178.971 46.994 178.863 46.73 178.863 46.418C178.863 46.106 178.971 45.842 179.187 45.626C179.403 45.41 179.667 45.302 179.979 45.302C180.279 45.302 180.531 45.41 180.735 45.626C180.951 45.842 181.059 46.106 181.059 46.418C181.059 46.73 180.951 46.994 180.735 47.21C180.531 47.426 180.279 47.534 179.979 47.534ZM180.771 49.136V59H179.133V49.136H180.771ZM182.95 54.032C182.95 53.024 183.154 52.142 183.562 51.386C183.97 50.618 184.528 50.024 185.236 49.604C185.956 49.184 186.76 48.974 187.648 48.974C188.416 48.974 189.13 49.154 189.79 49.514C190.45 49.862 190.954 50.324 191.302 50.9V45.68H192.958V59H191.302V57.146C190.978 57.734 190.498 58.22 189.862 58.604C189.226 58.976 188.482 59.162 187.63 59.162C186.754 59.162 185.956 58.946 185.236 58.514C184.528 58.082 183.97 57.476 183.562 56.696C183.154 55.916 182.95 55.028 182.95 54.032ZM191.302 54.05C191.302 53.306 191.152 52.658 190.852 52.106C190.552 51.554 190.144 51.134 189.628 50.846C189.124 50.546 188.566 50.396 187.954 50.396C187.342 50.396 186.784 50.54 186.28 50.828C185.776 51.116 185.374 51.536 185.074 52.088C184.774 52.64 184.624 53.288 184.624 54.032C184.624 54.788 184.774 55.448 185.074 56.012C185.374 56.564 185.776 56.99 186.28 57.29C186.784 57.578 187.342 57.722 187.954 57.722C188.566 57.722 189.124 57.578 189.628 57.29C190.144 56.99 190.552 56.564 190.852 56.012C191.152 55.448 191.302 54.794 191.302 54.05Z" fill="#FFA537"/>
<defs>
<clipPath id="clip0_1_326">
<rect width="64.2092" height="56.95" fill="white" transform="translate(0.470581 5)"/>
</clipPath>
</defs>
</svg>
