<svg width="198" height="66" viewBox="0 0 198 66" fill="none" xmlns="http://www.w3.org/2000/svg">
<g opacity="0.78" clip-path="url(#clip0_1_265)">
<path fill-rule="evenodd" clip-rule="evenodd" d="M14.1837 41.2192C14.1844 42.0975 14.0081 42.9674 13.6649 43.779C13.3217 44.5906 12.8183 45.328 12.1836 45.949C11.5488 46.57 10.7952 47.0624 9.96577 47.3979C9.13636 47.7335 8.24747 47.9057 7.34998 47.9046C6.45295 47.905 5.56465 47.7323 4.73586 47.3964C3.90708 47.0605 3.15407 46.568 2.5199 45.9471C1.88573 45.3262 1.38283 44.5891 1.03996 43.7778C0.697097 42.9665 0.520986 42.0971 0.5217 41.2192C0.520985 40.341 0.697187 39.4714 1.04022 38.6599C1.38326 37.8485 1.8864 37.1112 2.52086 36.4903C3.15532 35.8693 3.90865 35.3769 4.73774 35.0412C5.56684 34.7054 6.45544 34.533 7.3527 34.5337H14.1864V41.2192H14.1837ZM17.5992 41.2192C17.5985 40.341 17.7747 39.4714 18.1177 38.6599C18.4608 37.8485 18.9639 37.1112 19.5984 36.4903C20.2328 35.8693 20.9861 35.3769 21.8152 35.0412C22.6443 34.7054 23.5329 34.533 24.4302 34.5337C25.3275 34.533 26.2161 34.7054 27.0452 35.0412C27.8743 35.3769 28.6276 35.8693 29.262 36.4903C29.8965 37.1112 30.3996 37.8485 30.7427 38.6599C31.0857 39.4714 31.2619 40.341 31.2612 41.2192V57.9355C31.2619 58.8136 31.0857 59.6833 30.7427 60.4947C30.3996 61.3062 29.8965 62.0435 29.262 62.6644C28.6276 63.2853 27.8743 63.7778 27.0452 64.1135C26.2161 64.4492 25.3275 64.6217 24.4302 64.621C23.5329 64.6217 22.6443 64.4492 21.8152 64.1135C20.9861 63.7778 20.2328 63.2853 19.5984 62.6644C18.9639 62.0435 18.4608 61.3062 18.1177 60.4947C17.7747 59.6833 17.5985 58.8136 17.5992 57.9355V41.2192Z" fill="#E01E5A"/>
<path fill-rule="evenodd" clip-rule="evenodd" d="M24.4302 14.3736C23.5327 14.3743 22.6439 14.2018 21.8146 13.8659C20.9853 13.53 20.2319 13.0373 19.5974 12.4161C18.9629 11.7949 18.4598 11.0573 18.1169 10.2455C17.774 9.43379 17.5981 8.56384 17.5992 7.68547C17.5984 6.80733 17.7747 5.93766 18.1177 5.12623C18.4607 4.31479 18.9639 3.57751 19.5983 2.95657C20.2328 2.33563 20.9861 1.84321 21.8152 1.50748C22.6443 1.17175 23.5329 0.999303 24.4302 1C25.3274 0.999303 26.216 1.17175 27.0451 1.50748C27.8742 1.84321 28.6275 2.33563 29.262 2.95657C29.8965 3.57751 30.3996 4.31479 30.7426 5.12623C31.0857 5.93766 31.2619 6.80733 31.2612 7.68547V14.3763H24.4329L24.4302 14.3736ZM24.4302 17.7669C25.3274 17.7662 26.216 17.9386 27.0451 18.2743C27.8742 18.6101 28.6275 19.1025 29.262 19.7234C29.8965 20.3444 30.3996 21.0817 30.7426 21.8931C31.0857 22.7045 31.2619 23.5742 31.2612 24.4523C31.2619 25.3305 31.0857 26.2001 30.7426 27.0116C30.3996 27.823 29.8965 28.5603 29.262 29.1812C28.6275 29.8022 27.8742 30.2946 27.0451 30.6303C26.216 30.9661 25.3274 31.1385 24.4302 31.1378H7.29832C6.40129 31.1385 5.51291 30.9662 4.68399 30.6306C3.85507 30.295 3.10186 29.8028 2.46744 29.1822C1.83302 28.5615 1.32982 27.8246 0.986622 27.0134C0.643425 26.2023 0.46696 25.3329 0.467318 24.455C0.466603 23.5769 0.642804 22.7072 0.985841 21.8958C1.32888 21.0843 1.83202 20.347 2.46648 19.7261C3.10094 19.1052 3.85426 18.6127 4.68336 18.277C5.51246 17.9413 6.40106 17.7688 7.29832 17.7695H24.4329L24.4302 17.7669Z" fill="#36C5F0"/>
<path fill-rule="evenodd" clip-rule="evenodd" d="M51.8083 24.4523C51.8076 23.574 51.9839 22.7041 52.3271 21.8925C52.6703 21.0809 53.1737 20.3435 53.8084 19.7225C54.4432 19.1015 55.1968 18.6092 56.0262 18.2736C56.8557 17.938 57.7445 17.7658 58.642 17.7669C59.5393 17.7662 60.4279 17.9386 61.257 18.2743C62.0861 18.6101 62.8394 19.1025 63.4739 19.7234C64.1083 20.3444 64.6115 21.0817 64.9545 21.8931C65.2976 22.7045 65.4738 23.5742 65.473 24.4523C65.4738 25.3305 65.2976 26.2002 64.9545 27.0116C64.6115 27.823 64.1083 28.5603 63.4739 29.1812C62.8394 29.8022 62.0861 30.2946 61.257 30.6303C60.4279 30.9661 59.5393 31.1385 58.642 31.1378H51.8083V24.455V24.4523ZM48.3928 24.4523C48.3935 25.3305 48.2173 26.2002 47.8743 27.0116C47.5313 27.823 47.0281 28.5603 46.3937 29.1812C45.7592 29.8022 45.0059 30.2946 44.1768 30.6303C43.3477 30.9661 42.4591 31.1385 41.5618 31.1378C40.6643 31.1389 39.7754 30.9667 38.946 30.6311C38.1166 30.2955 37.363 29.8032 36.7282 29.1822C36.0935 28.5612 35.5901 27.8238 35.2469 27.0122C34.9037 26.2006 34.7274 25.3307 34.7281 24.4523V7.68548C34.7274 6.80711 34.9037 5.93722 35.2469 5.12561C35.5901 4.31401 36.0935 3.57661 36.7282 2.95563C37.363 2.33465 38.1166 1.84229 38.946 1.50672C39.7754 1.17114 40.6643 0.998955 41.5618 1C42.4591 0.999305 43.3477 1.17175 44.1768 1.50748C45.0059 1.84321 45.7592 2.33563 46.3937 2.95657C47.0281 3.57752 47.5313 4.3148 47.8743 5.12623C48.2173 5.93766 48.3935 6.80733 48.3928 7.68548V24.455V24.4523Z" fill="#2EB67D"/>
<path fill-rule="evenodd" clip-rule="evenodd" d="M41.5618 51.2474C42.459 51.2467 43.3476 51.4191 44.1767 51.7548C45.0058 52.0906 45.7592 52.583 46.3936 53.2039C47.0281 53.8249 47.5312 54.5622 47.8743 55.3736C48.2173 56.185 48.3935 57.0547 48.3928 57.9328C48.3939 58.8112 48.2179 59.6812 47.875 60.4929C47.5322 61.3046 47.0291 62.0422 46.3946 62.6635C45.7601 63.2847 45.0066 63.7773 44.1774 64.1132C43.3481 64.4491 42.4593 64.6217 41.5618 64.621C40.6643 64.6217 39.7755 64.4491 38.9462 64.1132C38.1169 63.7773 37.3635 63.2847 36.729 62.6635C36.0945 62.0422 35.5914 61.3046 35.2485 60.4929C34.9056 59.6812 34.7297 58.8112 34.7308 57.9328V51.2474H41.5618ZM41.5618 47.9046C40.6645 47.9053 39.7759 47.7329 38.9468 47.3972C38.1177 47.0614 37.3644 46.569 36.7299 45.9481C36.0955 45.3271 35.5923 44.5898 35.2493 43.7784C34.9063 42.967 34.7301 42.0973 34.7308 41.2192C34.7301 40.341 34.9063 39.4714 35.2493 38.6599C35.5923 37.8485 36.0955 37.1112 36.7299 36.4903C37.3644 35.8693 38.1177 35.3769 38.9468 35.0412C39.7759 34.7054 40.6645 34.533 41.5618 34.5337H58.6936C59.5909 34.533 60.4795 34.7054 61.3086 35.0412C62.1377 35.3769 62.891 35.8693 63.5255 36.4903C64.1599 37.1112 64.6631 37.8485 65.0061 38.6599C65.3491 39.4714 65.5253 40.341 65.5246 41.2192C65.5253 42.0973 65.3491 42.967 65.0061 43.7784C64.6631 44.5898 64.1599 45.3271 63.5255 45.9481C62.891 46.569 62.1377 47.0614 61.3086 47.3972C60.4795 47.7329 59.5909 47.9053 58.6936 47.9046H41.5618Z" fill="#ECB22E"/>
</g>
<path d="M103.074 26.168C101.954 26.168 100.946 25.976 100.05 25.592C99.1538 25.192 98.4498 24.632 97.9378 23.912C97.4258 23.192 97.1698 22.352 97.1698 21.392H100.098C100.162 22.112 100.442 22.704 100.938 23.168C101.45 23.632 102.162 23.864 103.074 23.864C104.018 23.864 104.754 23.64 105.282 23.192C105.81 22.728 106.074 22.136 106.074 21.416C106.074 20.856 105.906 20.4 105.57 20.048C105.25 19.696 104.842 19.424 104.346 19.232C103.866 19.04 103.194 18.832 102.33 18.608C101.242 18.32 100.354 18.032 99.6658 17.744C98.9938 17.44 98.4178 16.976 97.9378 16.352C97.4578 15.728 97.2178 14.896 97.2178 13.856C97.2178 12.896 97.4578 12.056 97.9378 11.336C98.4178 10.616 99.0898 10.064 99.9538 9.68C100.818 9.296 101.818 9.104 102.954 9.104C104.57 9.104 105.89 9.512 106.914 10.328C107.954 11.128 108.53 12.232 108.642 13.64H105.618C105.57 13.032 105.282 12.512 104.754 12.08C104.226 11.648 103.53 11.432 102.666 11.432C101.882 11.432 101.242 11.632 100.746 12.032C100.25 12.432 100.002 13.008 100.002 13.76C100.002 14.272 100.154 14.696 100.458 15.032C100.778 15.352 101.178 15.608 101.658 15.8C102.138 15.992 102.794 16.2 103.626 16.424C104.73 16.728 105.626 17.032 106.314 17.336C107.018 17.64 107.61 18.112 108.09 18.752C108.586 19.376 108.834 20.216 108.834 21.272C108.834 22.12 108.602 22.92 108.138 23.672C107.69 24.424 107.026 25.032 106.146 25.496C105.282 25.944 104.258 26.168 103.074 26.168ZM114.798 8.24V26H112.062V8.24H114.798ZM117.478 19.328C117.478 18 117.75 16.824 118.294 15.8C118.854 14.776 119.606 13.984 120.55 13.424C121.51 12.848 122.566 12.56 123.718 12.56C124.758 12.56 125.662 12.768 126.43 13.184C127.214 13.584 127.838 14.088 128.302 14.696V12.776H131.062V26H128.302V24.032C127.838 24.656 127.206 25.176 126.406 25.592C125.606 26.008 124.694 26.216 123.67 26.216C122.534 26.216 121.494 25.928 120.55 25.352C119.606 24.76 118.854 23.944 118.294 22.904C117.75 21.848 117.478 20.656 117.478 19.328ZM128.302 19.376C128.302 18.464 128.11 17.672 127.726 17C127.358 16.328 126.87 15.816 126.262 15.464C125.654 15.112 124.998 14.936 124.294 14.936C123.59 14.936 122.934 15.112 122.326 15.464C121.718 15.8 121.222 16.304 120.838 16.976C120.47 17.632 120.286 18.416 120.286 19.328C120.286 20.24 120.47 21.04 120.838 21.728C121.222 22.416 121.718 22.944 122.326 23.312C122.95 23.664 123.606 23.84 124.294 23.84C124.998 23.84 125.654 23.664 126.262 23.312C126.87 22.96 127.358 22.448 127.726 21.776C128.11 21.088 128.302 20.288 128.302 19.376ZM133.744 19.376C133.744 18.016 134.016 16.824 134.56 15.8C135.12 14.76 135.888 13.96 136.864 13.4C137.84 12.84 138.96 12.56 140.224 12.56C141.824 12.56 143.144 12.944 144.184 13.712C145.24 14.464 145.952 15.544 146.32 16.952H143.368C143.128 16.296 142.744 15.784 142.216 15.416C141.688 15.048 141.024 14.864 140.224 14.864C139.104 14.864 138.208 15.264 137.536 16.064C136.88 16.848 136.552 17.952 136.552 19.376C136.552 20.8 136.88 21.912 137.536 22.712C138.208 23.512 139.104 23.912 140.224 23.912C141.808 23.912 142.856 23.216 143.368 21.824H146.32C145.936 23.168 145.216 24.24 144.16 25.04C143.104 25.824 141.792 26.216 140.224 26.216C138.96 26.216 137.84 25.936 136.864 25.376C135.888 24.8 135.12 24 134.56 22.976C134.016 21.936 133.744 20.736 133.744 19.376ZM154.279 19.4L160.375 26H156.679L151.783 20.312V26H149.047V8.24H151.783V18.56L156.583 12.776H160.375L154.279 19.4Z" fill="white" fill-opacity="0.78"/>
<path d="M104.256 46.454V47.786H98.8018V52.016H103.23V53.348H98.8018V59H97.1638V46.454H104.256ZM107.872 50.738C108.16 50.174 108.568 49.736 109.096 49.424C109.636 49.112 110.29 48.956 111.058 48.956V50.648H110.626C108.79 50.648 107.872 51.644 107.872 53.636V59H106.234V49.136H107.872V50.738ZM121.949 53.69C121.949 54.002 121.931 54.332 121.895 54.68H114.011C114.071 55.652 114.401 56.414 115.001 56.966C115.613 57.506 116.351 57.776 117.215 57.776C117.923 57.776 118.511 57.614 118.979 57.29C119.459 56.954 119.795 56.51 119.987 55.958H121.751C121.487 56.906 120.959 57.68 120.167 58.28C119.375 58.868 118.391 59.162 117.215 59.162C116.279 59.162 115.439 58.952 114.695 58.532C113.963 58.112 113.387 57.518 112.967 56.75C112.547 55.97 112.337 55.07 112.337 54.05C112.337 53.03 112.541 52.136 112.949 51.368C113.357 50.6 113.927 50.012 114.659 49.604C115.403 49.184 116.255 48.974 117.215 48.974C118.151 48.974 118.979 49.178 119.699 49.586C120.419 49.994 120.971 50.558 121.355 51.278C121.751 51.986 121.949 52.79 121.949 53.69ZM120.257 53.348C120.257 52.724 120.119 52.19 119.843 51.746C119.567 51.29 119.189 50.948 118.709 50.72C118.241 50.48 117.719 50.36 117.143 50.36C116.315 50.36 115.607 50.624 115.019 51.152C114.443 51.68 114.113 52.412 114.029 53.348H120.257ZM133.111 53.69C133.111 54.002 133.093 54.332 133.057 54.68H125.173C125.233 55.652 125.563 56.414 126.163 56.966C126.775 57.506 127.513 57.776 128.377 57.776C129.085 57.776 129.673 57.614 130.141 57.29C130.621 56.954 130.957 56.51 131.149 55.958H132.913C132.649 56.906 132.121 57.68 131.329 58.28C130.537 58.868 129.553 59.162 128.377 59.162C127.441 59.162 126.601 58.952 125.857 58.532C125.125 58.112 124.549 57.518 124.129 56.75C123.709 55.97 123.499 55.07 123.499 54.05C123.499 53.03 123.703 52.136 124.111 51.368C124.519 50.6 125.089 50.012 125.821 49.604C126.565 49.184 127.417 48.974 128.377 48.974C129.313 48.974 130.141 49.178 130.861 49.586C131.581 49.994 132.133 50.558 132.517 51.278C132.913 51.986 133.111 52.79 133.111 53.69ZM131.419 53.348C131.419 52.724 131.281 52.19 131.005 51.746C130.729 51.29 130.351 50.948 129.871 50.72C129.403 50.48 128.881 50.36 128.305 50.36C127.477 50.36 126.769 50.624 126.181 51.152C125.605 51.68 125.275 52.412 125.191 53.348H131.419ZM149.702 59L148.064 57.344C147.452 57.98 146.798 58.454 146.102 58.766C145.406 59.066 144.62 59.216 143.744 59.216C142.88 59.216 142.112 59.06 141.44 58.748C140.78 58.436 140.264 57.992 139.892 57.416C139.532 56.84 139.352 56.168 139.352 55.4C139.352 54.524 139.598 53.756 140.09 53.096C140.594 52.424 141.332 51.896 142.304 51.512C141.92 51.056 141.644 50.636 141.476 50.252C141.308 49.868 141.224 49.448 141.224 48.992C141.224 48.464 141.356 47.99 141.62 47.57C141.896 47.138 142.286 46.802 142.79 46.562C143.294 46.322 143.876 46.202 144.536 46.202C145.184 46.202 145.748 46.328 146.228 46.58C146.708 46.832 147.068 47.186 147.308 47.642C147.548 48.086 147.656 48.584 147.632 49.136H145.994C146.006 48.644 145.868 48.26 145.58 47.984C145.292 47.696 144.92 47.552 144.464 47.552C143.984 47.552 143.594 47.69 143.294 47.966C143.006 48.23 142.862 48.572 142.862 48.992C142.862 49.352 142.958 49.7 143.15 50.036C143.354 50.372 143.69 50.786 144.158 51.278L147.902 55.04L148.226 54.536L149.45 52.484H151.214L149.738 55.04C149.534 55.4 149.294 55.778 149.018 56.174L151.844 59H149.702ZM143.744 57.812C144.392 57.812 144.974 57.686 145.49 57.434C146.018 57.182 146.516 56.792 146.984 56.264L143.294 52.556C141.758 53.144 140.99 54.074 140.99 55.346C140.99 56.054 141.242 56.642 141.746 57.11C142.262 57.578 142.928 57.812 143.744 57.812ZM166.565 50.126C166.565 51.17 166.205 52.04 165.485 52.736C164.777 53.42 163.691 53.762 162.227 53.762H159.815V59H158.177V46.454H162.227C163.643 46.454 164.717 46.796 165.449 47.48C166.193 48.164 166.565 49.046 166.565 50.126ZM162.227 52.412C163.139 52.412 163.811 52.214 164.243 51.818C164.675 51.422 164.891 50.858 164.891 50.126C164.891 48.578 164.003 47.804 162.227 47.804H159.815V52.412H162.227ZM167.989 54.032C167.989 53.024 168.193 52.142 168.601 51.386C169.009 50.618 169.567 50.024 170.275 49.604C170.995 49.184 171.793 48.974 172.669 48.974C173.533 48.974 174.283 49.16 174.919 49.532C175.555 49.904 176.029 50.372 176.341 50.936V49.136H177.997V59H176.341V57.164C176.017 57.74 175.531 58.22 174.883 58.604C174.247 58.976 173.503 59.162 172.651 59.162C171.775 59.162 170.983 58.946 170.275 58.514C169.567 58.082 169.009 57.476 168.601 56.696C168.193 55.916 167.989 55.028 167.989 54.032ZM176.341 54.05C176.341 53.306 176.191 52.658 175.891 52.106C175.591 51.554 175.183 51.134 174.667 50.846C174.163 50.546 173.605 50.396 172.993 50.396C172.381 50.396 171.823 50.54 171.319 50.828C170.815 51.116 170.413 51.536 170.113 52.088C169.813 52.64 169.663 53.288 169.663 54.032C169.663 54.788 169.813 55.448 170.113 56.012C170.413 56.564 170.815 56.99 171.319 57.29C171.823 57.578 172.381 57.722 172.993 57.722C173.605 57.722 174.163 57.578 174.667 57.29C175.183 56.99 175.591 56.564 175.891 56.012C176.191 55.448 176.341 54.794 176.341 54.05ZM181.611 47.534C181.299 47.534 181.035 47.426 180.819 47.21C180.603 46.994 180.495 46.73 180.495 46.418C180.495 46.106 180.603 45.842 180.819 45.626C181.035 45.41 181.299 45.302 181.611 45.302C181.911 45.302 182.163 45.41 182.367 45.626C182.583 45.842 182.691 46.106 182.691 46.418C182.691 46.73 182.583 46.994 182.367 47.21C182.163 47.426 181.911 47.534 181.611 47.534ZM182.403 49.136V59H180.765V49.136H182.403ZM184.583 54.032C184.583 53.024 184.787 52.142 185.195 51.386C185.603 50.618 186.161 50.024 186.869 49.604C187.589 49.184 188.393 48.974 189.281 48.974C190.049 48.974 190.763 49.154 191.423 49.514C192.083 49.862 192.587 50.324 192.935 50.9V45.68H194.591V59H192.935V57.146C192.611 57.734 192.131 58.22 191.495 58.604C190.859 58.976 190.115 59.162 189.263 59.162C188.387 59.162 187.589 58.946 186.869 58.514C186.161 58.082 185.603 57.476 185.195 56.696C184.787 55.916 184.583 55.028 184.583 54.032ZM192.935 54.05C192.935 53.306 192.785 52.658 192.485 52.106C192.185 51.554 191.777 51.134 191.261 50.846C190.757 50.546 190.199 50.396 189.587 50.396C188.975 50.396 188.417 50.54 187.913 50.828C187.409 51.116 187.007 51.536 186.707 52.088C186.407 52.64 186.257 53.288 186.257 54.032C186.257 54.788 186.407 55.448 186.707 56.012C187.007 56.564 187.409 56.99 187.913 57.29C188.417 57.578 188.975 57.722 189.587 57.722C190.199 57.722 190.757 57.578 191.261 57.29C191.777 56.99 192.185 56.564 192.485 56.012C192.785 55.448 192.935 54.794 192.935 54.05Z" fill="#FFA537" fill-opacity="0.55"/>
<defs>
<clipPath id="clip0_1_265">
<rect width="65.2124" height="63.8231" fill="white" transform="translate(0.467316 1)"/>
</clipPath>
</defs>
</svg>
