<svg width="326" height="66" viewBox="0 0 326 66" fill="none" xmlns="http://www.w3.org/2000/svg">
<g opacity="0.78">
<mask id="mask0_1_389" style="mask-type:alpha" maskUnits="userSpaceOnUse" x="0" y="2" width="66" height="63">
<path d="M46.8903 64.497C47.4072 64.6927 47.96 64.7831 48.5144 64.7624C49.0687 64.7417 49.6128 64.6104 50.1127 64.3767L63.4866 58.1267C64.1754 57.8046 64.7566 57.3002 65.1633 56.6715C65.57 56.0429 65.7857 55.3154 65.7856 54.573V12.1931C65.7857 11.4507 65.5699 10.7233 65.1632 10.0946C64.7565 9.46599 64.1754 8.96164 63.4866 8.63958L50.113 2.38933C49.3573 2.03616 48.5072 1.91988 47.6805 2.05657C46.8537 2.19327 46.0912 2.5762 45.4984 3.15234L19.8957 25.8383L8.74332 17.6165C8.24026 17.2456 7.6194 17.0575 6.98845 17.0847C6.3575 17.112 5.75628 17.3529 5.2891 17.7657L1.71235 20.9258C0.532923 21.9677 0.531649 23.7698 1.70929 24.8133L11.3809 33.383L1.70929 41.9525C0.531649 42.9963 0.532923 44.7981 1.71235 45.8402L5.2891 49.0001C5.75624 49.4129 6.35745 49.6539 6.9884 49.6812C7.61935 49.7085 8.24023 49.5204 8.74332 49.1495L19.8957 40.9275L45.4984 63.6135C45.8942 63.9985 46.3683 64.2994 46.8903 64.497ZM49.5559 19.0609L30.1292 33.383L49.5559 47.7049V19.0609Z" fill="white"/>
</mask>
<g mask="url(#mask0_1_389)">
<path d="M63.5263 8.64928L50.142 2.39037C49.3861 2.03692 48.5357 1.92038 47.7087 2.0569C46.8816 2.19342 46.1186 2.57624 45.5254 3.15239L1.70977 41.9525C0.531363 42.9963 0.532891 44.7982 1.71283 45.8403L5.29187 49.0002C5.75943 49.4131 6.36101 49.654 6.99233 49.6813C7.62365 49.7086 8.2449 49.5205 8.74838 49.1496L61.5124 10.273C63.2825 8.96893 65.825 10.1951 65.825 12.353V12.202C65.825 11.4598 65.6093 10.7325 65.2026 10.104C64.796 9.47554 64.2149 8.97129 63.5263 8.64928Z" fill="#0065A9"/>
<path d="M63.5263 58.1159L50.142 64.3749C49.386 64.7282 48.5357 64.8447 47.7087 64.7082C46.8816 64.5717 46.1187 64.1889 45.5254 63.6128L1.70977 24.8127C0.531363 23.7691 0.532891 21.967 1.71283 20.9252L5.29187 17.7651C5.75946 17.3522 6.36106 17.1113 6.99238 17.084C7.62369 17.0568 8.24493 17.2449 8.74838 17.6159L61.5124 56.4922C63.2825 57.7963 65.825 56.5701 65.825 54.412V54.5632C65.825 55.3055 65.6093 56.0327 65.2026 56.6612C64.7959 57.2897 64.2149 57.7939 63.5263 58.1159Z" fill="#007ACC"/>
<path d="M50.0999 64.3798C49.3438 64.733 48.4934 64.8493 47.6663 64.7127C46.8392 64.5761 46.0762 64.1932 45.4828 63.617C46.981 65.0718 49.5428 64.0413 49.5428 61.9834V4.78904C49.5428 2.73111 46.981 1.70066 45.4828 3.15566C46.0761 2.57947 46.8391 2.19655 47.6663 2.05986C48.4934 1.92317 49.3438 2.03947 50.0999 2.39266L63.482 8.64291C64.171 8.96474 64.7525 9.46901 65.1594 10.0977C65.5664 10.7263 65.7823 11.4538 65.7823 12.1964V54.5765C65.7823 56.0919 64.8881 57.4734 63.482 58.13L50.0999 64.38V64.3798Z" fill="#1F9CF0"/>
<path d="M46.8903 64.4964C47.4072 64.6921 47.96 64.7824 48.5144 64.7618C49.0687 64.7411 49.6128 64.6098 50.1127 64.3762L63.4863 58.1259C64.1752 57.8039 64.7564 57.2996 65.1632 56.6709C65.5699 56.0423 65.7857 55.3149 65.7856 54.5724V12.1925C65.7857 11.4501 65.5699 10.7227 65.1632 10.0941C64.7565 9.46543 64.1754 8.96107 63.4866 8.63902L50.1124 2.38852C49.3568 2.0354 48.5068 1.91915 47.6801 2.05585C46.8534 2.19255 46.0909 2.57544 45.4982 3.15152L19.8957 25.8378L8.74332 17.6159C8.24026 17.2451 7.6194 17.0569 6.98845 17.0842C6.3575 17.1114 5.75628 17.3523 5.2891 17.7651L1.71235 20.9253C0.532923 21.9671 0.531649 23.7692 1.70929 24.8128L11.3809 33.3825L1.70929 41.9519C0.531649 42.9957 0.532923 44.7976 1.71235 45.8397L5.2891 48.9995C5.75624 49.4124 6.35745 49.6533 6.9884 49.6806C7.61935 49.7079 8.24023 49.5198 8.74332 49.149L19.8957 40.9269L45.4982 63.6129C45.8941 63.998 46.3682 64.2989 46.8903 64.4964ZM49.5559 19.0601L30.1292 33.3825L49.5559 47.7044V19.0603V19.0601Z" fill="url(#paint0_linear_1_389)" fill-opacity="0.25"/>
</g>
</g>
<path d="M112.076 9.32L105.812 26H102.644L96.3563 9.32H99.2843L104.228 23.192L109.196 9.32H112.076ZM115.756 11.024C115.26 11.024 114.844 10.856 114.508 10.52C114.172 10.184 114.004 9.768 114.004 9.272C114.004 8.776 114.172 8.36 114.508 8.024C114.844 7.688 115.26 7.52 115.756 7.52C116.236 7.52 116.644 7.688 116.98 8.024C117.316 8.36 117.484 8.776 117.484 9.272C117.484 9.768 117.316 10.184 116.98 10.52C116.644 10.856 116.236 11.024 115.756 11.024ZM117.1 12.776V26H114.364V12.776H117.1ZM125.492 26.216C124.452 26.216 123.516 26.032 122.684 25.664C121.868 25.28 121.22 24.768 120.74 24.128C120.26 23.472 120.004 22.744 119.972 21.944H122.804C122.852 22.504 123.116 22.976 123.596 23.36C124.092 23.728 124.708 23.912 125.444 23.912C126.212 23.912 126.804 23.768 127.22 23.48C127.652 23.176 127.868 22.792 127.868 22.328C127.868 21.832 127.628 21.464 127.148 21.224C126.684 20.984 125.94 20.72 124.916 20.432C123.924 20.16 123.116 19.896 122.492 19.64C121.868 19.384 121.324 18.992 120.86 18.464C120.412 17.936 120.188 17.24 120.188 16.376C120.188 15.672 120.396 15.032 120.812 14.456C121.228 13.864 121.82 13.4 122.588 13.064C123.372 12.728 124.268 12.56 125.276 12.56C126.78 12.56 127.988 12.944 128.9 13.712C129.828 14.464 130.324 15.496 130.388 16.808H127.652C127.604 16.216 127.364 15.744 126.932 15.392C126.5 15.04 125.916 14.864 125.18 14.864C124.46 14.864 123.908 15 123.524 15.272C123.14 15.544 122.948 15.904 122.948 16.352C122.948 16.704 123.076 17 123.332 17.24C123.588 17.48 123.9 17.672 124.268 17.816C124.636 17.944 125.18 18.112 125.9 18.32C126.86 18.576 127.644 18.84 128.252 19.112C128.876 19.368 129.412 19.752 129.86 20.264C130.308 20.776 130.54 21.456 130.556 22.304C130.556 23.056 130.348 23.728 129.932 24.32C129.516 24.912 128.924 25.376 128.156 25.712C127.404 26.048 126.516 26.216 125.492 26.216ZM145.489 12.776V26H142.753V24.44C142.321 24.984 141.753 25.416 141.049 25.736C140.361 26.04 139.625 26.192 138.841 26.192C137.801 26.192 136.865 25.976 136.033 25.544C135.217 25.112 134.569 24.472 134.089 23.624C133.625 22.776 133.393 21.752 133.393 20.552V12.776H136.105V20.144C136.105 21.328 136.401 22.24 136.993 22.88C137.585 23.504 138.393 23.816 139.417 23.816C140.441 23.816 141.249 23.504 141.841 22.88C142.449 22.24 142.753 21.328 142.753 20.144V12.776H145.489ZM148.187 19.328C148.187 18 148.459 16.824 149.003 15.8C149.563 14.776 150.315 13.984 151.259 13.424C152.219 12.848 153.275 12.56 154.427 12.56C155.467 12.56 156.371 12.768 157.139 13.184C157.923 13.584 158.547 14.088 159.011 14.696V12.776H161.771V26H159.011V24.032C158.547 24.656 157.915 25.176 157.115 25.592C156.315 26.008 155.403 26.216 154.379 26.216C153.243 26.216 152.203 25.928 151.259 25.352C150.315 24.76 149.563 23.944 149.003 22.904C148.459 21.848 148.187 20.656 148.187 19.328ZM159.011 19.376C159.011 18.464 158.819 17.672 158.435 17C158.067 16.328 157.579 15.816 156.971 15.464C156.363 15.112 155.707 14.936 155.003 14.936C154.299 14.936 153.643 15.112 153.035 15.464C152.427 15.8 151.931 16.304 151.547 16.976C151.179 17.632 150.995 18.416 150.995 19.328C150.995 20.24 151.179 21.04 151.547 21.728C151.931 22.416 152.427 22.944 153.035 23.312C153.659 23.664 154.315 23.84 155.003 23.84C155.707 23.84 156.363 23.664 156.971 23.312C157.579 22.96 158.067 22.448 158.435 21.776C158.819 21.088 159.011 20.288 159.011 19.376ZM168.1 8.24V26H165.364V8.24H168.1ZM183.423 26.168C182.303 26.168 181.295 25.976 180.399 25.592C179.503 25.192 178.799 24.632 178.287 23.912C177.775 23.192 177.519 22.352 177.519 21.392H180.447C180.511 22.112 180.791 22.704 181.287 23.168C181.799 23.632 182.511 23.864 183.423 23.864C184.367 23.864 185.103 23.64 185.631 23.192C186.159 22.728 186.423 22.136 186.423 21.416C186.423 20.856 186.255 20.4 185.919 20.048C185.599 19.696 185.191 19.424 184.695 19.232C184.215 19.04 183.543 18.832 182.679 18.608C181.591 18.32 180.703 18.032 180.015 17.744C179.343 17.44 178.767 16.976 178.287 16.352C177.807 15.728 177.567 14.896 177.567 13.856C177.567 12.896 177.807 12.056 178.287 11.336C178.767 10.616 179.439 10.064 180.303 9.68C181.167 9.296 182.167 9.104 183.303 9.104C184.919 9.104 186.239 9.512 187.263 10.328C188.303 11.128 188.879 12.232 188.991 13.64H185.967C185.919 13.032 185.631 12.512 185.103 12.08C184.575 11.648 183.879 11.432 183.015 11.432C182.231 11.432 181.591 11.632 181.095 12.032C180.599 12.432 180.351 13.008 180.351 13.76C180.351 14.272 180.503 14.696 180.807 15.032C181.127 15.352 181.527 15.608 182.007 15.8C182.487 15.992 183.143 16.2 183.975 16.424C185.079 16.728 185.975 17.032 186.663 17.336C187.367 17.64 187.959 18.112 188.439 18.752C188.935 19.376 189.183 20.216 189.183 21.272C189.183 22.12 188.951 22.92 188.487 23.672C188.039 24.424 187.375 25.032 186.495 25.496C185.631 25.944 184.607 26.168 183.423 26.168ZM195.603 15.008V22.328C195.603 22.824 195.715 23.184 195.939 23.408C196.179 23.616 196.579 23.72 197.139 23.72H198.819V26H196.659C195.427 26 194.483 25.712 193.827 25.136C193.171 24.56 192.843 23.624 192.843 22.328V15.008H191.283V12.776H192.843V9.488H195.603V12.776H198.819V15.008H195.603ZM213.317 12.776V26H210.581V24.44C210.149 24.984 209.581 25.416 208.877 25.736C208.189 26.04 207.453 26.192 206.669 26.192C205.629 26.192 204.693 25.976 203.861 25.544C203.045 25.112 202.397 24.472 201.917 23.624C201.453 22.776 201.221 21.752 201.221 20.552V12.776H203.933V20.144C203.933 21.328 204.229 22.24 204.821 22.88C205.413 23.504 206.221 23.816 207.245 23.816C208.269 23.816 209.077 23.504 209.669 22.88C210.277 22.24 210.581 21.328 210.581 20.144V12.776H213.317ZM216.015 19.328C216.015 18 216.287 16.824 216.831 15.8C217.391 14.776 218.143 13.984 219.087 13.424C220.047 12.848 221.111 12.56 222.279 12.56C223.143 12.56 223.991 12.752 224.823 13.136C225.671 13.504 226.343 14 226.839 14.624V8.24H229.599V26H226.839V24.008C226.391 24.648 225.767 25.176 224.967 25.592C224.183 26.008 223.279 26.216 222.255 26.216C221.103 26.216 220.047 25.928 219.087 25.352C218.143 24.76 217.391 23.944 216.831 22.904C216.287 21.848 216.015 20.656 216.015 19.328ZM226.839 19.376C226.839 18.464 226.647 17.672 226.263 17C225.895 16.328 225.407 15.816 224.799 15.464C224.191 15.112 223.535 14.936 222.831 14.936C222.127 14.936 221.471 15.112 220.863 15.464C220.255 15.8 219.759 16.304 219.375 16.976C219.007 17.632 218.823 18.416 218.823 19.328C218.823 20.24 219.007 21.04 219.375 21.728C219.759 22.416 220.255 22.944 220.863 23.312C221.487 23.664 222.143 23.84 222.831 23.84C223.535 23.84 224.191 23.664 224.799 23.312C225.407 22.96 225.895 22.448 226.263 21.776C226.647 21.088 226.839 20.288 226.839 19.376ZM234.584 11.024C234.088 11.024 233.672 10.856 233.336 10.52C233 10.184 232.832 9.768 232.832 9.272C232.832 8.776 233 8.36 233.336 8.024C233.672 7.688 234.088 7.52 234.584 7.52C235.064 7.52 235.472 7.688 235.808 8.024C236.144 8.36 236.312 8.776 236.312 9.272C236.312 9.768 236.144 10.184 235.808 10.52C235.472 10.856 235.064 11.024 234.584 11.024ZM235.928 12.776V26H233.192V12.776H235.928ZM245.257 26.216C244.009 26.216 242.881 25.936 241.873 25.376C240.865 24.8 240.073 24 239.497 22.976C238.921 21.936 238.633 20.736 238.633 19.376C238.633 18.032 238.929 16.84 239.521 15.8C240.113 14.76 240.921 13.96 241.945 13.4C242.969 12.84 244.113 12.56 245.377 12.56C246.641 12.56 247.785 12.84 248.809 13.4C249.833 13.96 250.641 14.76 251.233 15.8C251.825 16.84 252.121 18.032 252.121 19.376C252.121 20.72 251.817 21.912 251.209 22.952C250.601 23.992 249.769 24.8 248.713 25.376C247.673 25.936 246.521 26.216 245.257 26.216ZM245.257 23.84C245.961 23.84 246.617 23.672 247.225 23.336C247.849 23 248.353 22.496 248.737 21.824C249.121 21.152 249.313 20.336 249.313 19.376C249.313 18.416 249.129 17.608 248.761 16.952C248.393 16.28 247.905 15.776 247.297 15.44C246.689 15.104 246.033 14.936 245.329 14.936C244.625 14.936 243.969 15.104 243.361 15.44C242.769 15.776 242.297 16.28 241.945 16.952C241.593 17.608 241.417 18.416 241.417 19.376C241.417 20.8 241.777 21.904 242.497 22.688C243.233 23.456 244.153 23.84 245.257 23.84ZM260.148 17.624C260.148 15.992 260.524 14.528 261.276 13.232C262.044 11.936 263.076 10.928 264.372 10.208C265.684 9.472 267.116 9.104 268.668 9.104C270.444 9.104 272.02 9.544 273.396 10.424C274.788 11.288 275.796 12.52 276.42 14.12H273.132C272.7 13.24 272.1 12.584 271.332 12.152C270.564 11.72 269.676 11.504 268.668 11.504C267.564 11.504 266.58 11.752 265.716 12.248C264.852 12.744 264.172 13.456 263.676 14.384C263.196 15.312 262.956 16.392 262.956 17.624C262.956 18.856 263.196 19.936 263.676 20.864C264.172 21.792 264.852 22.512 265.716 23.024C266.58 23.52 267.564 23.768 268.668 23.768C269.676 23.768 270.564 23.552 271.332 23.12C272.1 22.688 272.7 22.032 273.132 21.152H276.42C275.796 22.752 274.788 23.984 273.396 24.848C272.02 25.712 270.444 26.144 268.668 26.144C267.1 26.144 265.668 25.784 264.372 25.064C263.076 24.328 262.044 23.312 261.276 22.016C260.524 20.72 260.148 19.256 260.148 17.624ZM285.358 26.216C284.11 26.216 282.982 25.936 281.974 25.376C280.966 24.8 280.174 24 279.598 22.976C279.022 21.936 278.734 20.736 278.734 19.376C278.734 18.032 279.03 16.84 279.622 15.8C280.214 14.76 281.022 13.96 282.046 13.4C283.07 12.84 284.214 12.56 285.478 12.56C286.742 12.56 287.886 12.84 288.91 13.4C289.934 13.96 290.742 14.76 291.334 15.8C291.926 16.84 292.222 18.032 292.222 19.376C292.222 20.72 291.918 21.912 291.31 22.952C290.702 23.992 289.87 24.8 288.814 25.376C287.774 25.936 286.622 26.216 285.358 26.216ZM285.358 23.84C286.062 23.84 286.718 23.672 287.326 23.336C287.95 23 288.454 22.496 288.838 21.824C289.222 21.152 289.414 20.336 289.414 19.376C289.414 18.416 289.23 17.608 288.862 16.952C288.494 16.28 288.006 15.776 287.398 15.44C286.79 15.104 286.134 14.936 285.43 14.936C284.726 14.936 284.07 15.104 283.462 15.44C282.87 15.776 282.398 16.28 282.046 16.952C281.694 17.608 281.518 18.416 281.518 19.376C281.518 20.8 281.878 21.904 282.598 22.688C283.334 23.456 284.254 23.84 285.358 23.84ZM294.015 19.328C294.015 18 294.287 16.824 294.831 15.8C295.391 14.776 296.143 13.984 297.087 13.424C298.047 12.848 299.111 12.56 300.279 12.56C301.143 12.56 301.991 12.752 302.823 13.136C303.671 13.504 304.343 14 304.839 14.624V8.24H307.599V26H304.839V24.008C304.391 24.648 303.767 25.176 302.967 25.592C302.183 26.008 301.279 26.216 300.255 26.216C299.103 26.216 298.047 25.928 297.087 25.352C296.143 24.76 295.391 23.944 294.831 22.904C294.287 21.848 294.015 20.656 294.015 19.328ZM304.839 19.376C304.839 18.464 304.647 17.672 304.263 17C303.895 16.328 303.407 15.816 302.799 15.464C302.191 15.112 301.535 14.936 300.831 14.936C300.127 14.936 299.471 15.112 298.863 15.464C298.255 15.8 297.759 16.304 297.375 16.976C297.007 17.632 296.823 18.416 296.823 19.328C296.823 20.24 297.007 21.04 297.375 21.728C297.759 22.416 298.255 22.944 298.863 23.312C299.487 23.664 300.143 23.84 300.831 23.84C301.535 23.84 302.191 23.664 302.799 23.312C303.407 22.96 303.895 22.448 304.263 21.776C304.647 21.088 304.839 20.288 304.839 19.376ZM323.312 19.064C323.312 19.56 323.28 20.008 323.216 20.408H313.112C313.192 21.464 313.584 22.312 314.288 22.952C314.992 23.592 315.856 23.912 316.88 23.912C318.352 23.912 319.392 23.296 320 22.064H322.952C322.552 23.28 321.824 24.28 320.768 25.064C319.728 25.832 318.432 26.216 316.88 26.216C315.616 26.216 314.48 25.936 313.472 25.376C312.48 24.8 311.696 24 311.12 22.976C310.56 21.936 310.28 20.736 310.28 19.376C310.28 18.016 310.552 16.824 311.096 15.8C311.656 14.76 312.432 13.96 313.424 13.4C314.432 12.84 315.584 12.56 316.88 12.56C318.128 12.56 319.24 12.832 320.216 13.376C321.192 13.92 321.952 14.688 322.496 15.68C323.04 16.656 323.312 17.784 323.312 19.064ZM320.456 18.2C320.44 17.192 320.08 16.384 319.376 15.776C318.672 15.168 317.8 14.864 316.76 14.864C315.816 14.864 315.008 15.168 314.336 15.776C313.664 16.368 313.264 17.176 313.136 18.2H320.456Z" fill="white" fill-opacity="0.78"/>
<path d="M104.378 46.454V47.786H98.9243V52.016H103.352V53.348H98.9243V59H97.2863V46.454H104.378ZM107.995 50.738C108.283 50.174 108.691 49.736 109.219 49.424C109.759 49.112 110.413 48.956 111.181 48.956V50.648H110.749C108.913 50.648 107.995 51.644 107.995 53.636V59H106.357V49.136H107.995V50.738ZM122.071 53.69C122.071 54.002 122.053 54.332 122.017 54.68H114.133C114.193 55.652 114.523 56.414 115.123 56.966C115.735 57.506 116.473 57.776 117.337 57.776C118.045 57.776 118.633 57.614 119.101 57.29C119.581 56.954 119.917 56.51 120.109 55.958H121.873C121.609 56.906 121.081 57.68 120.289 58.28C119.497 58.868 118.513 59.162 117.337 59.162C116.401 59.162 115.561 58.952 114.817 58.532C114.085 58.112 113.509 57.518 113.089 56.75C112.669 55.97 112.459 55.07 112.459 54.05C112.459 53.03 112.663 52.136 113.071 51.368C113.479 50.6 114.049 50.012 114.781 49.604C115.525 49.184 116.377 48.974 117.337 48.974C118.273 48.974 119.101 49.178 119.821 49.586C120.541 49.994 121.093 50.558 121.477 51.278C121.873 51.986 122.071 52.79 122.071 53.69ZM120.379 53.348C120.379 52.724 120.241 52.19 119.965 51.746C119.689 51.29 119.311 50.948 118.831 50.72C118.363 50.48 117.841 50.36 117.265 50.36C116.437 50.36 115.729 50.624 115.141 51.152C114.565 51.68 114.235 52.412 114.151 53.348H120.379ZM133.234 53.69C133.234 54.002 133.216 54.332 133.18 54.68H125.296C125.356 55.652 125.686 56.414 126.286 56.966C126.898 57.506 127.636 57.776 128.5 57.776C129.208 57.776 129.796 57.614 130.264 57.29C130.744 56.954 131.08 56.51 131.272 55.958H133.036C132.772 56.906 132.244 57.68 131.452 58.28C130.66 58.868 129.676 59.162 128.5 59.162C127.564 59.162 126.724 58.952 125.98 58.532C125.248 58.112 124.672 57.518 124.252 56.75C123.832 55.97 123.622 55.07 123.622 54.05C123.622 53.03 123.826 52.136 124.234 51.368C124.642 50.6 125.212 50.012 125.944 49.604C126.688 49.184 127.54 48.974 128.5 48.974C129.436 48.974 130.264 49.178 130.984 49.586C131.704 49.994 132.256 50.558 132.64 51.278C133.036 51.986 133.234 52.79 133.234 53.69ZM131.542 53.348C131.542 52.724 131.404 52.19 131.128 51.746C130.852 51.29 130.474 50.948 129.994 50.72C129.526 50.48 129.004 50.36 128.428 50.36C127.6 50.36 126.892 50.624 126.304 51.152C125.728 51.68 125.398 52.412 125.314 53.348H131.542Z" fill="#FFA537" fill-opacity="0.55"/>
<defs>
<linearGradient id="paint0_linear_1_389" x1="33.3063" y1="2.00012" x2="33.3063" y2="64.7647" gradientUnits="userSpaceOnUse">
<stop stop-color="white"/>
<stop offset="1" stop-color="white" stop-opacity="0"/>
</linearGradient>
</defs>
</svg>
